<?xml version="1.0" encoding="utf-8"?>
<!-- Generator: Adobe Illustrator 19.2.0, SVG Export Plug-In . SVG Version: 6.00 Build 0)  -->
<svg version="1.1" id="Layer_1" xmlns="http://www.w3.org/2000/svg" xmlns:xlink="http://www.w3.org/1999/xlink" x="0px" y="0px"
	 viewBox="0 0 847.1 723.2" style="enable-background:new 0 0 847.1 723.2;" xml:space="preserve">
<path d="M547.5,648.1c-240.5-8.8-329.6-217.4-329.6-217.4L847.1,277c-37-105-120-226-292.2-263c-136-29.2-239.7-9.3-324,28l0,0
	c-23.5,9.8-45.4,21.2-65.5,34.1c-8.9,5.4-17.7,11.6-26.6,18.6C46.8,164.8-1.8,267.6,0,376.5c0.3,33.1,6.1,66.8,19.1,99.9
	c2.3,5.9,4.7,11.7,7.2,17.4c35.2,78.9,98.9,140.9,178,178.2c59.3,26.3,128.2,43.4,197.8,49.2c21.9,1.4,44.5,2,67.9,2
	c1.4,0,2.8,0,4.2,0c3.5-0.1,6.6-0.1,9.5-0.1c212.2-4.9,326.7-121.3,326.7-121.3L770.1,551C770.1,551,682.1,653,547.5,648.1z
	 M195.3,370.2c0,0-63.3-228.9,130.3-288C509.1,26,609.7,201.5,635,261.5L195.3,370.2z"/>
</svg>
