<?xml version="1.0" encoding="utf-8"?>
<!-- Generator: Adobe Illustrator 19.2.0, SVG Export Plug-In . SVG Version: 6.00 Build 0)  -->
<svg version="1.1" id="Calque_1" xmlns="http://www.w3.org/2000/svg" xmlns:xlink="http://www.w3.org/1999/xlink" x="0px" y="0px"
	 viewBox="0 0 690.5 78.8" style="enable-background:new 0 0 690.5 78.8;" xml:space="preserve">
<style type="text/css">
	.st0{fill:#E7DBC3;}
</style>
<path class="st0" d="M0,39.8C0,18,20,3.5,47.3,3.5c6.9,0,13.7,0.8,20.1,3.1l-1,9.8c-5.6-2.6-11.9-4-18.4-4
	c-20.6,0-34.4,11.8-34.4,27.7c0,16.6,15.1,27.7,33.7,27.7c6.4,0,15-1.3,19.5-3.5l0.7,9.9c-6.8,2.2-15.1,2.5-20.3,2.5
	C18.9,76.8,0,62.4,0,39.8"/>
<polyline class="st0" points="161.7,75.6 142.2,13.6 141.9,13.6 122.4,75.6 105.2,75.6 78.2,4.7 92.2,4.7 113.6,65.4 113.9,65.4 
	133,4.7 151.2,4.7 170.5,65.4 170.8,65.4 192.2,4.7 205.8,4.7 178.2,75.6 161.7,75.6 "/>
<path class="st0" d="M233.2,67.7c-9.4-7.4-14.1-17.1-14.1-29.1c0-9.1,3.3-17.3,10.2-24.4c6.8-7.2,15.8-11.6,27.1-13.3
	c3.4-0.5,6.7-0.8,9.9-0.8c9.5,0,18,2.3,25.7,6.8c7.1,4.2,12.7,9.8,16.9,16.9l0.4,1.2l1,2.1c0.8,1.7,0.2,2.9-1.8,3.5l-61.9,15.2
	c-1.7,0.5-2.5,1.1-2.5,1.6c0,0.4,0.5,1.7,1.5,3.9c1.4,3.1,3.8,6.3,7.2,9.4c7.3,6.8,16,10.2,26.4,10.2c8.6,0,16.3-2.5,23-7.4l2.2-1.5
	l4.5,6.1c-3,2.4-7.5,4.7-13.7,6.7c-10,3.1-18.4,4-25.1,4C254.8,78.8,242.6,75.1,233.2,67.7 M241.1,22.8c-0.6,2.2-0.8,3.8-0.8,4.9
	v3.9c0,5.2,0.8,7.8,2.4,7.8c0.4,0,1-0.1,1.8-0.2l41.3-10c1.5-0.4,2.3-1,2.5-1.7c-0.1,0.2-0.6-1.4-1.4-4.7l-0.6-1.4
	c-1.2-3-3.6-5.8-7.2-8.5c-5.1-4-10.6-6-16.6-6C250.8,6.9,243.6,12.2,241.1,22.8"/>
<path class="st0" d="M329.5,75.6v-8.7c2.8,0.8,5.7,1,8.1,1c11.5,0,14.6-5.2,14.6-13.8V4.7H365v52.6c0,9.9-5.7,19.5-25.1,19.5
	C335.8,76.8,332.2,76.3,329.5,75.6"/>
<polyline class="st0" points="479.6,75.6 479.6,14.2 479.4,14.2 449.8,75.6 437.2,75.6 407.6,14.2 407.4,14.2 407.4,75.6 
	394.6,75.6 394.6,4.7 415.7,4.7 443.8,63.6 471.3,4.7 492.4,4.7 492.4,75.6 479.6,75.6 "/>
<path class="st0" d="M587.4,75.6l-9.1-17.9h-43.8l-9.1,17.9H512l38.2-70.9h13.4l37.8,70.9H587.4 M538.6,49.4h35.6l-17.8-35.1
	L538.6,49.4"/>
<polyline class="st0" points="674.1,75.6 633.6,17.3 633.4,17.3 633.4,75.6 620.6,75.6 620.6,4.7 638,4.7 677.4,61.7 677.7,61.7 
	677.7,4.7 690.5,4.7 690.5,75.6 674.1,75.6 "/>
</svg>
