<?xml version="1.0" encoding="utf-8"?>
<!-- Generator: Adobe Illustrator 19.1.0, SVG Export Plug-In . SVG Version: 6.00 Build 0)  -->
<svg version="1.1" id="Calque_1" xmlns="http://www.w3.org/2000/svg" xmlns:xlink="http://www.w3.org/1999/xlink" x="0px" y="0px"
	 viewBox="0 0 200.2 364" style="enable-background:new 0 0 200.2 364;" xml:space="preserve">
<style type="text/css">
	.st0{fill:none;stroke:#000000;stroke-width:1.4183;stroke-miterlimit:500;}
	.st1{fill:#FFFFFF;}
	.st2{fill:#F1E5D0;}
	.st3{fill:none;stroke:#010202;stroke-width:0.8504;stroke-miterlimit:500;}
	.st4{fill:none;stroke:#2B4B9B;stroke-width:0;stroke-linecap:round;stroke-linejoin:round;}
	.st5{fill:none;stroke:#2B4B9B;stroke-width:0;stroke-miterlimit:500;}
	.st6{fill:#312D2A;}
	.st7{fill-rule:evenodd;clip-rule:evenodd;fill:#010202;}
	.st8{fill:none;stroke:#312D2A;stroke-width:1.0761;}
	.st9{fill-rule:evenodd;clip-rule:evenodd;fill:#312D2A;}
	.st10{fill:#010202;}
	.st11{fill:url(#SVGID_1_);}
	.st12{fill:url(#SVGID_2_);}
	.st13{fill:url(#SVGID_3_);stroke:#887054;stroke-width:0.5;stroke-miterlimit:10;}
	.st14{fill:url(#SVGID_4_);}
	.st15{fill:#7E7667;}
	.st16{fill:url(#SVGID_5_);}
	.st17{fill:#443A21;}
	.st18{fill:#11120F;}
	.st19{fill:none;stroke:#7E7667;stroke-width:0.5;stroke-miterlimit:10;}
	.st20{fill:url(#SVGID_6_);stroke:#887054;stroke-width:0.5;stroke-miterlimit:10;}
	.st21{fill:url(#SVGID_7_);}
	.st22{fill:url(#SVGID_8_);}
	.st23{fill:url(#SVGID_9_);stroke:#887054;stroke-width:0.5;stroke-miterlimit:10;}
	.st24{fill:url(#SVGID_10_);}
	.st25{fill:url(#SVGID_11_);}
	.st26{fill:url(#SVGID_12_);stroke:#887054;stroke-width:0.5;stroke-miterlimit:10;}
	.st27{fill:url(#SVGID_13_);}
	.st28{fill:url(#SVGID_14_);}
	.st29{fill:url(#SVGID_15_);stroke:#887054;stroke-width:0.5;stroke-miterlimit:10;}
	.st30{fill:url(#SVGID_16_);}
	.st31{fill:url(#SVGID_17_);}
	.st32{fill:url(#SVGID_18_);stroke:#887054;stroke-width:0.5;stroke-miterlimit:10;}
	.st33{fill:url(#SVGID_19_);}
	.st34{fill:url(#SVGID_20_);}
	.st35{fill:url(#SVGID_21_);stroke:#887054;stroke-width:0.5;stroke-miterlimit:10;}
	.st36{fill:url(#SVGID_22_);}
	.st37{fill:url(#SVGID_23_);}
	.st38{fill:url(#SVGID_24_);stroke:#887054;stroke-width:0.5;stroke-miterlimit:10;}
	.st39{fill:url(#SVGID_25_);}
	.st40{fill:url(#SVGID_26_);}
	.st41{fill:url(#SVGID_27_);}
	.st42{opacity:0.4;fill:url(#SVGID_28_);}
	.st43{fill:url(#SVGID_29_);}
	.st44{fill:#DEDCDD;}
	.st45{fill:url(#SVGID_30_);}
	.st46{opacity:0.4;fill:url(#SVGID_31_);}
	.st47{fill:url(#SVGID_32_);}
	.st48{fill:url(#SVGID_33_);}
	.st49{opacity:0.4;fill:url(#SVGID_34_);}
	.st50{fill:url(#SVGID_35_);}
	.st51{fill:url(#SVGID_36_);}
	.st52{opacity:0.4;fill:url(#SVGID_37_);}
	.st53{fill:url(#SVGID_38_);}
	.st54{fill:url(#SVGID_39_);}
	.st55{opacity:0.4;fill:url(#SVGID_40_);}
	.st56{fill:url(#SVGID_41_);}
</style>
<line class="st0" x1="139.7" y1="91.8" x2="60.5" y2="91.8"/>
<rect x="73.5" y="84.3" class="st1" width="53.3" height="17"/>
<path class="st2" d="M0,0v364h200.2V0H0z M29,356.2c0,2.2-1.8,4-4,4h-8.8c-2.2,0-4-1.8-4-4v-1.4c0-2.2,1.8-4,4-4H25c2.2,0,4,1.8,4,4
	V356.2z M29.2,9.2c0,2.2-1.8,4-4,4h-8.8c-2.2,0-4-1.8-4-4V7.8c0-2.2,1.8-4,4-4h8.8c2.2,0,4,1.8,4,4V9.2z M187.5,356.2
	c0,2.2-1.8,4-4,4h-8.8c-2.2,0-4-1.8-4-4v-1.4c0-2.2,1.8-4,4-4h8.8c2.2,0,4,1.8,4,4V356.2z M187.6,9.2c0,2.2-1.8,4-4,4h-8.8
	c-2.2,0-4-1.8-4-4V7.8c0-2.2,1.8-4,4-4h8.8c2.2,0,4,1.8,4,4V9.2z"/>
<line class="st3" x1="169.2" y1="61.2" x2="169.2" y2="48.4"/>
<line class="st4" x1="169.2" y1="61.2" x2="169.2" y2="58.3"/>
<line class="st5" x1="169.2" y1="61.2" x2="169.2" y2="58.3"/>
<line class="st5" x1="169.2" y1="61.2" x2="169.2" y2="58.3"/>
<line class="st5" x1="169.2" y1="61.2" x2="169.2" y2="58.3"/>
<line class="st5" x1="32.4" y1="61.2" x2="32.4" y2="58.3"/>
<line class="st5" x1="32.4" y1="61.2" x2="32.4" y2="58.3"/>
<line class="st5" x1="32.4" y1="61.2" x2="32.4" y2="58.3"/>
<line class="st3" x1="32.4" y1="61.2" x2="32.4" y2="48.4"/>
<line class="st4" x1="32.4" y1="61.2" x2="32.4" y2="58.3"/>
<line class="st5" x1="32.4" y1="61.2" x2="32.4" y2="58.3"/>
<line class="st5" x1="32.4" y1="61.2" x2="32.4" y2="58.3"/>
<line class="st5" x1="32.4" y1="61.2" x2="32.4" y2="58.3"/>
<path class="st6" d="M115,281.6c0,0.9-0.8,1.7-1.7,1.7H88.3c-0.9,0-1.7-0.8-1.7-1.7v-33.4c0-0.9,0.8-1.7,1.7-1.7h24.9
	c0.9,0,1.7,0.8,1.7,1.7V281.6z"/>
<path class="st6" d="M79,281.7c0,0.9-0.8,1.7-1.7,1.7H52.3c-0.9,0-1.7-0.8-1.7-1.7v-33.4c0-0.9,0.8-1.7,1.7-1.7h24.9
	c0.9,0,1.7,0.8,1.7,1.7V281.7z"/>
<path class="st6" d="M151,281.7c0,0.9-0.8,1.7-1.7,1.7h-24.9c-0.9,0-1.7-0.8-1.7-1.7v-33.4c0-0.9,0.8-1.7,1.7-1.7h24.9
	c0.9,0,1.7,0.8,1.7,1.7V281.7z"/>
<g>
	<path class="st7" d="M54.9,63.2L54.9,63.2c1.2-12.5-7.9-23.6-20.3-24.8C22.1,37.2,11,46.3,9.8,58.8l0,0"/>
	<path class="st7" d="M9.8,58.8L9.8,58.8c-1.2,12.5,7.9,23.6,20.3,24.8c12.5,1.2,23.6-7.9,24.8-20.3l0,0"/>
</g>
<g>
	<path class="st7" d="M54.9,192.8L54.9,192.8c1.2-12.5-7.9-23.6-20.4-24.8c-12.5-1.2-23.6,7.9-24.8,20.3l0,0"/>
	<path class="st7" d="M9.8,188.4L9.8,188.4c-1.2,12.5,7.9,23.6,20.3,24.8c12.5,1.2,23.6-7.9,24.8-20.3l0,0"/>
</g>
<g>
	<path class="st7" d="M123.5,190.5L123.5,190.5c-0.1-12.5-10.4-22.6-22.9-22.4c-12.5,0.1-22.6,10.4-22.4,22.9l0,0"/>
	<path class="st7" d="M78.2,191L78.2,191c0.1,12.5,10.4,22.6,22.9,22.4c12.5-0.1,22.6-10.4,22.4-22.9l0,0"/>
</g>
<polyline class="st5" points="95,136.1 95,115.9 106.6,115.9 106.6,136.1 95,136.1 "/>
<g>
	<g>
		<path class="st6" d="M161.1,89.6h3.9v0.8h-3v1.5h2.5v0.7H162v2.2h-0.9V89.6z"/>
		<path class="st6" d="M165.7,89.6h0.9v5.2h-0.9V89.6z"/>
		<path class="st6" d="M167.9,89.6h0.9l2.8,3.7h0v-3.7h0.9v5.2h-0.9l-2.8-3.7h0v3.7h-0.9V89.6z"/>
		<path class="st6" d="M173.7,89.6h3.9v0.8h-3v1.5h2.5v0.7h-2.5V94h3v0.8h-3.9V89.6z"/>
	</g>
	<g>
		<path class="st6" d="M96.5,41.3h0.9v4.5h3v0.8h-3.9V41.3z"/>
		<path class="st6" d="M101.7,41.3h3.9v0.8h-3v1.5h2.5v0.7h-2.5v2.2h-0.9V41.3z"/>
	</g>
	<path class="st8" d="M107.3,46.8c0,0.7-0.6,1.3-1.3,1.3H95.6c-0.7,0-1.3-0.6-1.3-1.3v-5.6c0-0.7,0.6-1.3,1.3-1.3H106
		c0.7,0,1.3,0.6,1.3,1.3V46.8z"/>
	<g>
		<path class="st6" d="M22.2,93.3c-0.2,1-1.1,1.5-2.1,1.5c-1,0-1.6-0.5-1.9-0.9c-0.2-0.3-0.3-0.5-0.3-1.7s0.1-1.4,0.3-1.7
			c0.3-0.5,0.9-0.9,1.9-0.9c1.2,0,1.9,0.7,2.1,1.6h-1c-0.1-0.4-0.6-0.8-1.2-0.8c-0.4,0-0.8,0.2-0.9,0.4c-0.2,0.3-0.3,0.4-0.3,1.5
			c0,1.1,0.1,1.2,0.3,1.5c0.2,0.2,0.5,0.4,0.9,0.4c0.5,0,0.9-0.2,1.2-0.7H22.2z"/>
		<path class="st6" d="M22.9,90.4c0.3-0.5,0.9-0.9,1.9-0.9s1.6,0.5,1.9,0.9c0.2,0.3,0.3,0.5,0.3,1.7s-0.1,1.4-0.3,1.7
			c-0.3,0.5-0.9,0.9-1.9,0.9s-1.6-0.5-1.9-0.9c-0.2-0.3-0.3-0.5-0.3-1.7S22.7,90.7,22.9,90.4z M23.9,93.6c0.2,0.2,0.5,0.4,0.9,0.4
			c0.4,0,0.8-0.2,0.9-0.4c0.2-0.3,0.3-0.4,0.3-1.5c0-1.1-0.1-1.2-0.3-1.5c-0.2-0.2-0.5-0.4-0.9-0.4c-0.4,0-0.8,0.2-0.9,0.4
			c-0.2,0.3-0.3,0.4-0.3,1.5C23.6,93.2,23.6,93.4,23.9,93.6z"/>
		<path class="st6" d="M31,93.6h-2.3l-0.5,1.2h-1l2.2-5.2h0.8l2.2,5.2h-1L31,93.6z M30.8,92.9l-0.9-2.3h0L29,92.9H30.8z"/>
		<path class="st6" d="M33.1,89.5h2.4c0.5,0,0.9,0.1,1.2,0.3c0.3,0.3,0.6,0.6,0.6,1.1c0,0.7-0.4,1.2-1.2,1.5l1.4,2.3h-1.1l-1.3-2.2
			H34v2.2h-0.9V89.5z M34,91.8h1.4c0.7,0,1-0.4,1-0.8c0-0.3-0.1-0.5-0.3-0.6c-0.2-0.1-0.4-0.2-0.7-0.2H34V91.8z"/>
		<path class="st6" d="M38.4,93.5c0.5,0.3,1.1,0.5,1.7,0.5c0.8,0,1.2-0.3,1.2-0.7c0-0.4-0.2-0.6-0.8-0.7c-0.3,0-0.5-0.1-0.8-0.1
			c-1.1-0.1-1.6-0.7-1.6-1.5c0-0.9,0.7-1.5,2-1.5c0.8,0,1.4,0.2,2,0.5l-0.5,0.7c-0.4-0.2-1-0.4-1.5-0.4c-0.6,0-1,0.3-1,0.8
			c0,0.3,0.2,0.6,0.9,0.7c0.2,0,0.4,0.1,0.7,0.1c1.1,0.1,1.7,0.8,1.7,1.5c0,1-0.8,1.5-2.1,1.5c-0.9,0-1.7-0.2-2.3-0.7L38.4,93.5z"/>
		<path class="st6" d="M43.2,89.5h3.9v0.8h-3v1.5h2.5v0.7h-2.5V94h3v0.8h-3.9V89.5z"/>
		<path class="st6" d="M31.7,99.8h-2.4v2.3h-0.9v-5.2h0.9v2.2h2.4v-2.2h0.9v5.2h-0.9V99.8z"/>
		<path class="st6" d="M33.6,101.5l2.2-2.5h-2.1v-0.7h3.1V99l-2.2,2.4h2.2v0.7h-3.2V101.5z"/>
	</g>
	<g>
		<path class="st6" d="M18,85.3c0,0.4-0.2,0.7-0.5,0.7c-0.3,0-0.5-0.2-0.5-0.6c0-0.4,0.2-0.7,0.5-0.7S18,84.9,18,85.3z M18.5,82.2
			h-1.2l-0.8,1.2c-0.5,0.7-0.7,1.2-0.7,1.7c0,0.9,0.7,1.6,1.6,1.6c0.9,0,1.6-0.6,1.6-1.5c0-1.1-0.9-1.5-1.6-1.4L18.5,82.2z"/>
		<path class="st6" d="M14,82.3h0.8v4.4h-0.9v-3.4l-0.8,0.6l-0.5-0.6L14,82.3z"/>
	</g>
	<g>
		<path class="st6" d="M44.1,82.3H45v4.4h-1v-3.4l-0.8,0.6l-0.5-0.6L44.1,82.3z"/>
		<path class="st6" d="M49.3,86.7h-3.3v-0.1c0.5-0.6,1-1.2,1.4-1.7c0.4-0.6,0.5-0.9,0.5-1.2c0-0.3-0.3-0.6-0.7-0.6
			c-0.3,0-0.8,0.2-1.2,0.6v-0.9c0.5-0.3,0.9-0.4,1.4-0.4c1,0,1.6,0.5,1.6,1.3c0,0.6-0.5,1.3-1.3,2.3h1.6V86.7z"/>
		<path class="st6" d="M51.4,85.2L51.4,85.2l1.3-1.5h1.2l-1.3,1.5l1.3,1.5h-1.3L51.4,85.2L51.4,85.2v1.5h-1v-4.4h1V85.2z"/>
	</g>
	<g>
		<path class="st6" d="M149.6,223c-0.2,1-1,1.5-2,1.5c-0.9,0-1.5-0.5-1.8-0.9c-0.2-0.3-0.3-0.5-0.3-1.7c0-1.3,0.1-1.4,0.3-1.7
			c0.3-0.5,0.9-0.9,1.8-0.9c1.1,0,1.9,0.7,2,1.6h-0.9c-0.1-0.4-0.6-0.8-1.1-0.8c-0.4,0-0.7,0.2-0.9,0.4c-0.2,0.3-0.3,0.4-0.3,1.5
			s0.1,1.2,0.3,1.5c0.2,0.2,0.5,0.4,0.9,0.4c0.5,0,0.9-0.2,1.1-0.7H149.6z"/>
		<path class="st6" d="M153.5,223.3h-2.2l-0.5,1.2h-0.9l2.1-5.2h0.7l2.1,5.2h-0.9L153.5,223.3z M153.2,222.6l-0.8-2.3h0l-0.8,2.3
			H153.2z"/>
		<path class="st6" d="M155.7,219.2h2.3c0.5,0,0.9,0.1,1.2,0.3c0.3,0.3,0.6,0.6,0.6,1.1c0,0.7-0.4,1.2-1.1,1.5l1.3,2.3h-1l-1.2-2.2
			h-1.1v2.2h-0.9V219.2z M156.5,221.5h1.3c0.7,0,1-0.4,1-0.8c0-0.3-0.1-0.5-0.3-0.6c-0.2-0.1-0.3-0.2-0.6-0.2h-1.4V221.5z"/>
		<path class="st6" d="M160.9,219.2h2.3c0.5,0,0.9,0.1,1.2,0.3c0.3,0.3,0.6,0.6,0.6,1.1c0,0.7-0.4,1.2-1.1,1.5l1.3,2.3h-1l-1.2-2.2
			h-1.1v2.2h-0.9V219.2z M161.7,221.5h1.3c0.7,0,1-0.4,1-0.8c0-0.3-0.1-0.5-0.3-0.6c-0.2-0.1-0.3-0.2-0.6-0.2h-1.4V221.5z"/>
		<path class="st6" d="M166.1,219.2h0.9v5.2h-0.9V219.2z"/>
		<path class="st6" d="M168.4,219.2h3.7v0.8h-2.8v1.5h2.4v0.7h-2.4v1.5h2.8v0.8h-3.7V219.2z"/>
		<path class="st6" d="M173.1,219.2h2.3c0.5,0,0.9,0.1,1.2,0.3c0.3,0.3,0.6,0.6,0.6,1.1c0,0.7-0.4,1.2-1.1,1.5l1.3,2.3h-1l-1.2-2.2
			H174v2.2h-0.9V219.2z M174,221.5h1.3c0.7,0,1-0.4,1-0.8c0-0.3-0.1-0.5-0.3-0.6c-0.2-0.1-0.3-0.2-0.6-0.2H174V221.5z"/>
		<path class="st6" d="M184.4,223c-0.2,1-1,1.5-2,1.5c-0.9,0-1.5-0.5-1.8-0.9c-0.2-0.3-0.3-0.5-0.3-1.7c0-1.3,0.1-1.4,0.3-1.7
			c0.3-0.5,0.9-0.9,1.8-0.9c1.1,0,1.9,0.7,2,1.6h-0.9c-0.1-0.4-0.6-0.8-1.1-0.8c-0.4,0-0.7,0.2-0.9,0.4c-0.2,0.3-0.3,0.4-0.3,1.5
			s0.1,1.2,0.3,1.5c0.2,0.2,0.5,0.4,0.9,0.4c0.5,0,0.9-0.2,1.1-0.7H184.4z"/>
		<path class="st6" d="M184.6,219.2h0.9l1.3,4h0l1.3-4h0.9l-1.9,5.2h-0.7L184.6,219.2z"/>
		<path class="st6" d="M191,220l-0.8,0.5v-0.8l0.8-0.5h0.8v5.2H191V220z"/>
	</g>
	<g>
		<path class="st6" d="M24.5,223.3h-2.2l-0.4,1.2h-0.9l2.1-5.2h0.7l2.1,5.2h-0.9L24.5,223.3z M24.2,222.6l-0.8-2.3h0l-0.8,2.3H24.2z
			"/>
		<path class="st6" d="M26.4,219.2h0.9v3.4c0,0.7,0.5,1.1,1.2,1.1c0.7,0,1.2-0.4,1.2-1.1v-3.4h0.9v3.5c0,1.1-0.9,1.8-2.1,1.8
			s-2.1-0.7-2.1-1.8V219.2z"/>
		<path class="st6" d="M31.9,219.2h2c0.8,0,1.4,0.3,1.8,0.9c0.3,0.4,0.3,0.6,0.3,1.7c0,1.2-0.1,1.4-0.3,1.8
			c-0.3,0.5-0.9,0.9-1.8,0.9h-2V219.2z M32.8,223.7h1.1c0.5,0,0.9-0.2,1.1-0.5c0.2-0.3,0.2-0.4,0.2-1.4c0-0.9,0-1.2-0.3-1.5
			c-0.3-0.3-0.6-0.4-1-0.4h-1.1V223.7z"/>
		<path class="st6" d="M37.2,219.2h0.9v5.2h-0.9V219.2z"/>
		<path class="st6" d="M39.6,220.1c0.3-0.5,0.9-0.9,1.8-0.9s1.5,0.5,1.8,0.9c0.2,0.3,0.3,0.5,0.3,1.7c0,1.3-0.1,1.4-0.3,1.7
			c-0.3,0.5-0.9,0.9-1.8,0.9s-1.5-0.5-1.8-0.9c-0.2-0.3-0.3-0.5-0.3-1.7C39.4,220.6,39.4,220.4,39.6,220.1z M40.5,223.3
			c0.2,0.2,0.5,0.4,0.9,0.4c0.4,0,0.7-0.2,0.9-0.4c0.2-0.3,0.3-0.4,0.3-1.5s-0.1-1.2-0.3-1.5c-0.2-0.2-0.5-0.4-0.9-0.4
			c-0.4,0-0.7,0.2-0.9,0.4c-0.2,0.3-0.3,0.4-0.3,1.5S40.3,223.1,40.5,223.3z"/>
		<path class="st6" d="M19.6,226.6h0.9v5.2h-0.9V226.6z"/>
		<path class="st6" d="M22,226.6h0.8l2.6,3.7h0v-3.7h0.9v5.2h-0.8l-2.6-3.7h0v3.7H22V226.6z"/>
		<path class="st6" d="M27.8,226.6h2.1c0.5,0,0.9,0.1,1.3,0.4c0.4,0.2,0.6,0.7,0.6,1.3c0,0.7-0.6,1.6-1.8,1.6h-1.3v2h-0.9V226.6z
			 M28.6,229h1.3c0.7,0,1-0.4,1-0.8c0-0.4-0.2-0.6-0.4-0.7c-0.2-0.1-0.4-0.1-0.6-0.1h-1.3V229z"/>
		<path class="st6" d="M32.7,226.6h0.9v3.4c0,0.7,0.5,1.1,1.2,1.1c0.7,0,1.2-0.4,1.2-1.1v-3.4h0.9v3.5c0,1.1-0.9,1.8-2.1,1.8
			s-2.1-0.7-2.1-1.8V226.6z"/>
		<path class="st6" d="M39.2,227.3h-1.6v-0.7h4.1v0.7H40v4.5h-0.9V227.3z"/>
		<path class="st6" d="M43.4,227.4l-0.8,0.5v-0.8l0.8-0.5h0.8v5.2h-0.8V227.4z"/>
	</g>
	<g>
		<path class="st6" d="M94.9,219.2h0.8l1.7,3.4l1.6-3.4h0.8v5.2H99v-3.3h0l-1.2,2.5H97l-1.2-2.5h0v3.3h-0.9V219.2z"/>
		<path class="st6" d="M101.3,219.2h0.9v5.2h-0.9V219.2z"/>
		<path class="st6" d="M105.2,222.5l-1.3,2h-1l1.8-2.7l-1.7-2.6h1l1.2,1.8l1.2-1.8h1l-1.7,2.6l1.8,2.7h-1L105.2,222.5z"/>
	</g>
	<g>
		<g>
			<path class="st6" d="M77,45.4h0.7v0.6H77V45.4z"/>
			<path class="st6" d="M78,43c0-0.7,0.6-1.2,1.3-1.2c0.7,0,1.3,0.4,1.3,1.2v1.8c0,0.7-0.6,1.2-1.3,1.2c-0.7,0-1.3-0.4-1.3-1.2V43z
				 M80,43.1c0-0.4-0.3-0.6-0.7-0.6s-0.7,0.2-0.7,0.6v1.7c0,0.4,0.3,0.6,0.7,0.6s0.7-0.2,0.7-0.6V43.1z"/>
			<path class="st6" d="M80.8,45.4l1.8-2c0.1-0.2,0.2-0.3,0.2-0.4c0-0.3-0.2-0.6-0.6-0.6c-0.4,0-0.7,0.2-0.7,0.6h-0.7
				c0-0.7,0.6-1.2,1.3-1.2c0.8,0,1.4,0.5,1.4,1.2c0,0.3-0.1,0.5-0.3,0.7l-1.5,1.6h1.8v0.6h-2.7V45.4z"/>
			<path class="st6" d="M87.7,44.2h-1.9v1.8h-0.7v-4h0.7v1.7h1.9v-1.7h0.7v4h-0.7V44.2z"/>
			<path class="st6" d="M88.8,45.5l1.7-1.9h-1.6v-0.5h2.4v0.5l-1.7,1.9h1.7v0.5h-2.5V45.5z"/>
		</g>
		<g>
			<path class="st6" d="M110.7,42.5l-0.7,0.4v-0.6l0.7-0.4h0.7v4h-0.7V42.5z"/>
			<path class="st6" d="M113.9,41.9h0.8l-1,1.7h0c0.1,0,0.2-0.1,0.4-0.1c0.6,0,1.1,0.3,1.1,1.1c0,0.9-0.7,1.3-1.4,1.3
				c-0.7,0-1.3-0.5-1.3-1.2c0-0.2,0.1-0.5,0.2-0.7L113.9,41.9z M113.1,44.7c0,0.5,0.3,0.7,0.7,0.7c0.3,0,0.7-0.2,0.7-0.7
				c0-0.5-0.3-0.7-0.7-0.7S113.1,44.3,113.1,44.7z"/>
			<path class="st6" d="M119.4,44.2h-1.9v1.8h-0.7v-4h0.7v1.7h1.9v-1.7h0.7v4h-0.7V44.2z"/>
			<path class="st6" d="M120.5,45.5l1.7-1.9h-1.6v-0.5h2.4v0.5l-1.7,1.9h1.7v0.5h-2.5V45.5z"/>
		</g>
		<g>
			<path class="st6" d="M143,53.6c0.5,0,0.7-0.3,0.7-0.5c0-0.3-0.3-0.5-0.7-0.5c-0.3,0-0.6,0.1-0.9,0.2v-0.8
				c0.3-0.1,0.7-0.2,1.1-0.2c0.9,0,1.6,0.4,1.6,1.1c0,0.4-0.3,0.8-0.7,1c0.6,0.2,0.9,0.6,0.9,1.1c0,0.8-0.7,1.3-1.8,1.3
				c-0.4,0-0.9-0.1-1.2-0.3v-0.9c0.4,0.2,0.7,0.4,1,0.4c0.5,0,0.8-0.2,0.8-0.6c0-0.4-0.3-0.6-0.8-0.6V53.6z"/>
		</g>
		<g>
			<path class="st6" d="M150,75.3h-1.6v0.8c1.1-0.1,1.7,0.6,1.7,1.4c0,0.9-0.7,1.4-1.8,1.4c-0.4,0-0.9-0.1-1.2-0.2v-0.8
				c0.4,0.2,0.7,0.3,1,0.3c0.5,0,0.8-0.3,0.8-0.6c0-0.5-0.6-0.8-1.6-0.6v-2.5h2.6V75.3z"/>
		</g>
		<g>
			<path class="st6" d="M150.5,45.5h-3.3v-0.1c0.5-0.6,1-1.2,1.4-1.7c0.4-0.6,0.5-0.9,0.5-1.2c0-0.3-0.3-0.6-0.7-0.6
				c-0.3,0-0.8,0.2-1.2,0.6v-0.9c0.5-0.3,0.9-0.4,1.4-0.4c1,0,1.6,0.5,1.6,1.3c0,0.6-0.5,1.3-1.3,2.3h1.6V45.5z"/>
		</g>
		<g>
			<path class="st6" d="M158.2,34.6h0.9v4.6h-1v-3.5l-0.9,0.6l-0.5-0.6L158.2,34.6z"/>
		</g>
		<g>
			<path class="st6" d="M190.6,75.3h-1.6v0.8c1.1-0.1,1.7,0.6,1.7,1.4c0,0.9-0.7,1.4-1.8,1.4c-0.4,0-0.9-0.1-1.2-0.2v-0.8
				c0.4,0.2,0.7,0.3,1,0.3c0.5,0,0.8-0.3,0.8-0.6c0-0.5-0.6-0.8-1.6-0.6v-2.5h2.6V75.3z"/>
		</g>
		<g>
			<path class="st6" d="M195.6,66.4h0.3v0.7h-0.3v1.1h-1.1v-1.1h-1.9v-0.7l2.3-2.7h0.7V66.4z M193.5,66.4h1.1v-1.2h0L193.5,66.4z"/>
		</g>
		<g>
			<path class="st6" d="M193.9,53.6c0.5,0,0.7-0.3,0.7-0.5c0-0.3-0.3-0.5-0.7-0.5c-0.3,0-0.6,0.1-0.9,0.2v-0.8
				c0.3-0.1,0.7-0.2,1.1-0.2c0.9,0,1.6,0.4,1.6,1.1c0,0.4-0.3,0.8-0.7,1c0.6,0.2,0.9,0.6,0.9,1.1c0,0.8-0.7,1.3-1.8,1.3
				c-0.4,0-0.9-0.1-1.2-0.3v-0.9c0.4,0.2,0.7,0.4,1,0.4c0.5,0,0.8-0.2,0.8-0.6c0-0.4-0.3-0.6-0.8-0.6V53.6z"/>
		</g>
		<g>
			<path class="st6" d="M180.4,34.6h0.9v4.6h-1v-3.5l-0.9,0.6l-0.5-0.6L180.4,34.6z"/>
		</g>
		<g>
			<path class="st6" d="M156.9,83.8c0.8-0.2,1.7,0.3,1.7,1.4c0,0.9-0.7,1.5-1.6,1.5c-1,0-1.6-0.6-1.6-1.6c0-0.5,0.2-1.1,0.7-1.7
				l0.9-1.2h1.2L156.9,83.8z M156.9,84.5c-0.3,0-0.5,0.3-0.5,0.7c0,0.4,0.2,0.6,0.6,0.6c0.3,0,0.6-0.3,0.6-0.7
				C157.5,84.8,157.3,84.5,156.9,84.5z"/>
		</g>
		<g>
			<path class="st6" d="M181.4,83.8c0.8-0.2,1.7,0.3,1.7,1.4c0,0.9-0.7,1.5-1.6,1.5c-1,0-1.6-0.6-1.6-1.6c0-0.5,0.2-1.1,0.7-1.7
				l0.9-1.2h1.2L181.4,83.8z M181.5,84.5c-0.3,0-0.5,0.3-0.5,0.7c0,0.4,0.2,0.6,0.6,0.6c0.3,0,0.6-0.3,0.6-0.7
				C182,84.8,181.8,84.5,181.5,84.5z"/>
		</g>
		<g>
			<path class="st6" d="M191.1,45.5h-3.3v-0.1c0.5-0.6,1-1.2,1.4-1.7c0.4-0.6,0.5-0.9,0.5-1.2c0-0.3-0.3-0.6-0.7-0.6
				c-0.3,0-0.8,0.2-1.2,0.6v-0.9c0.5-0.3,0.9-0.4,1.4-0.4c1,0,1.6,0.5,1.6,1.3c0,0.6-0.5,1.3-1.3,2.3h1.6V45.5z"/>
		</g>
		<g>
			<path class="st6" d="M144.6,66.4h0.3v0.7h-0.3v1.1h-1.1v-1.1h-1.9v-0.7l2.3-2.7h0.7V66.4z M142.5,66.4h1.1v-1.2h0L142.5,66.4z"/>
		</g>
		<g>
			<path class="st6" d="M169.2,35.1c-1.1,0-1.7-0.9-1.7-2.3c0-1.5,0.7-2.3,1.7-2.3c1.1,0,1.7,1,1.7,2.3
				C170.9,34.1,170.4,35.1,169.2,35.1z M169.2,31.4c-0.5,0-0.6,0.6-0.6,1.5c0,0.9,0.1,1.4,0.6,1.4c0.5,0,0.6-0.6,0.6-1.5
				C169.8,31.9,169.6,31.4,169.2,31.4z"/>
		</g>
		<g>
			<polygon class="st9" points="163.6,32.5 166,32.5 166,33.2 163.6,33.2 163.6,32.5 			"/>
		</g>
		<g>
			<polygon class="st9" points="173.9,31 174.5,31 174.5,32.6 176.2,32.6 176.2,33.1 174.5,33.1 174.5,34.7 173.9,34.7 173.9,33.1 
				172.2,33.1 172.2,32.6 173.9,32.6 173.9,31 			"/>
		</g>
		<g>
			<path class="st6" d="M88.6,93.3c-0.2,1-1.1,1.5-2.1,1.5c-1,0-1.6-0.5-1.9-0.9c-0.2-0.3-0.3-0.5-0.3-1.7s0.1-1.4,0.3-1.7
				c0.3-0.5,0.9-0.9,1.9-0.9c1.2,0,1.9,0.7,2.1,1.6h-1c-0.1-0.4-0.6-0.8-1.2-0.8c-0.4,0-0.8,0.2-0.9,0.4c-0.2,0.3-0.3,0.4-0.3,1.5
				c0,1.1,0.1,1.2,0.3,1.5c0.2,0.2,0.5,0.4,0.9,0.4c0.5,0,0.9-0.2,1.2-0.7H88.6z"/>
			<path class="st6" d="M92.4,93.6h-2.3l-0.5,1.2h-1l2.2-5.2h0.8l2.2,5.2h-1L92.4,93.6z M92.1,92.9l-0.9-2.3h0l-0.9,2.3H92.1z"/>
			<path class="st6" d="M94.5,89.5h2.4c0.5,0,0.9,0.1,1.2,0.3c0.3,0.3,0.6,0.6,0.6,1.1c0,0.7-0.4,1.2-1.2,1.5l1.4,2.3h-1.1l-1.3-2.2
				h-1.2v2.2h-0.9V89.5z M95.4,91.8h1.4c0.7,0,1-0.4,1-0.8c0-0.3-0.1-0.5-0.3-0.6c-0.2-0.1-0.4-0.2-0.7-0.2h-1.4V91.8z"/>
			<path class="st6" d="M99.7,89.5h2.4c0.5,0,0.9,0.1,1.2,0.3c0.3,0.3,0.6,0.6,0.6,1.1c0,0.7-0.4,1.2-1.2,1.5l1.4,2.3H103l-1.3-2.2
				h-1.2v2.2h-0.9V89.5z M100.6,91.8h1.4c0.7,0,1-0.4,1-0.8c0-0.3-0.1-0.5-0.3-0.6c-0.2-0.1-0.4-0.2-0.7-0.2h-1.4V91.8z"/>
			<path class="st6" d="M104.9,89.5h0.9v5.2h-0.9V89.5z"/>
			<path class="st6" d="M107.1,89.5h3.9v0.8h-3v1.5h2.5v0.7H108V94h3v0.8h-3.9V89.5z"/>
			<path class="st6" d="M111.8,89.5h2.4c0.5,0,0.9,0.1,1.2,0.3c0.3,0.3,0.6,0.6,0.6,1.1c0,0.7-0.4,1.2-1.2,1.5l1.4,2.3h-1.1
				l-1.3-2.2h-1.2v2.2h-0.9V89.5z M112.8,91.8h1.4c0.7,0,1-0.4,1-0.8c0-0.3-0.1-0.5-0.3-0.6c-0.2-0.1-0.4-0.2-0.7-0.2h-1.4V91.8z"/>
			<path class="st6" d="M78.4,98h3.9v0.8h-3v1.5h2.5v0.7h-2.5v2.2h-0.9V98z"/>
			<path class="st6" d="M83,98h2.4c0.5,0,0.9,0.1,1.2,0.3c0.3,0.3,0.6,0.6,0.6,1.1c0,0.7-0.4,1.2-1.2,1.5l1.4,2.3h-1.1l-1.3-2.2
				h-1.2v2.2H83V98z M83.9,100.3h1.4c0.7,0,1-0.4,1-0.8c0-0.3-0.1-0.5-0.3-0.6c-0.2-0.1-0.4-0.2-0.7-0.2h-1.4V100.3z"/>
			<path class="st6" d="M88.2,98h3.9v0.8h-3v1.5h2.5v0.7h-2.5v1.5h3v0.8h-3.9V98z"/>
			<path class="st6" d="M96.4,102.8c-0.4,0.3-0.8,0.5-1.4,0.5c-1,0-1.6-0.5-1.9-0.9c-0.2-0.3-0.3-0.5-0.3-1.7s0.1-1.4,0.3-1.7
				c0.3-0.5,0.9-0.9,1.9-0.9s1.6,0.5,1.9,0.9c0.2,0.3,0.3,0.5,0.3,1.7c0,1.1-0.1,1.4-0.2,1.6l0.8,0.6l-0.5,0.5L96.4,102.8z
				 M94.9,101.8l0.5-0.5l0.7,0.5c0.1-0.2,0.1-0.5,0.1-1.1c0-1.1-0.1-1.2-0.3-1.5c-0.2-0.2-0.5-0.4-0.9-0.4c-0.4,0-0.8,0.2-0.9,0.4
				c-0.2,0.3-0.3,0.4-0.3,1.5c0,1.1,0.1,1.2,0.3,1.5c0.2,0.2,0.5,0.4,0.9,0.4c0.3,0,0.5-0.1,0.7-0.2L94.9,101.8z"/>
			<path class="st6" d="M98,98H99v3.4c0,0.7,0.5,1.1,1.2,1.1s1.2-0.4,1.2-1.1V98h0.9v3.5c0,1.1-1,1.8-2.2,1.8s-2.2-0.7-2.2-1.8V98z"
				/>
			<path class="st6" d="M103.5,98h3.9v0.8h-3v1.5h2.5v0.7h-2.5v1.5h3v0.8h-3.9V98z"/>
			<path class="st6" d="M108.3,98h0.9l2.8,3.7h0V98h0.9v5.2H112l-2.8-3.7h0v3.7h-0.9V98z"/>
			<path class="st6" d="M118.2,101.8c-0.2,1-1.1,1.5-2.1,1.5c-1,0-1.6-0.5-1.9-0.9c-0.2-0.3-0.3-0.5-0.3-1.7s0.1-1.4,0.3-1.7
				c0.3-0.5,0.9-0.9,1.9-0.9c1.2,0,1.9,0.7,2.1,1.6h-1c-0.1-0.4-0.6-0.8-1.2-0.8c-0.4,0-0.8,0.2-0.9,0.4c-0.2,0.3-0.3,0.4-0.3,1.5
				c0,1.1,0.1,1.2,0.3,1.5c0.2,0.2,0.5,0.4,0.9,0.4c0.5,0,0.9-0.2,1.2-0.7H118.2z"/>
			<path class="st6" d="M119.9,101.1l-1.8-3.1h1l1.3,2.3l1.3-2.3h1l-1.8,3.1v2.2h-0.9V101.1z"/>
		</g>
		<g>
			<path class="st6" d="M92.9,78.8h-2.3L90.1,80h-1l2.2-5.2h0.8l2.2,5.2h-1L92.9,78.8z M92.7,78.1l-0.9-2.3h0l-0.9,2.3H92.7z"/>
			<path class="st6" d="M94.8,74.7h0.9v3.4c0,0.7,0.5,1.1,1.2,1.1c0.7,0,1.2-0.4,1.2-1.1v-3.4h0.9v3.5c0,1.1-1,1.8-2.2,1.8
				s-2.2-0.7-2.2-1.8V74.7z"/>
			<path class="st6" d="M100.3,74.7h2.1c0.8,0,1.5,0.3,1.9,0.9c0.3,0.4,0.3,0.6,0.3,1.7c0,1.2-0.1,1.4-0.3,1.8
				c-0.4,0.5-1,0.9-1.9,0.9h-2.1V74.7z M101.2,79.2h1.1c0.5,0,0.9-0.2,1.1-0.5c0.2-0.3,0.2-0.4,0.2-1.4c0-0.9,0-1.2-0.3-1.5
				c-0.3-0.3-0.6-0.4-1.1-0.4h-1.1V79.2z"/>
			<path class="st6" d="M105.7,74.7h0.9V80h-0.9V74.7z"/>
			<path class="st6" d="M107.9,75.6c0.3-0.5,1-0.9,1.9-0.9s1.6,0.5,1.9,0.9c0.2,0.3,0.3,0.5,0.3,1.7s-0.1,1.4-0.3,1.7
				c-0.3,0.5-1,0.9-1.9,0.9s-1.6-0.5-1.9-0.9c-0.2-0.3-0.3-0.5-0.3-1.7S107.7,75.9,107.9,75.6z M108.9,78.8c0.2,0.2,0.5,0.4,0.9,0.4
				s0.8-0.2,0.9-0.4c0.2-0.3,0.3-0.4,0.3-1.5c0-1.1-0.1-1.2-0.3-1.5c-0.2-0.2-0.5-0.4-0.9-0.4s-0.8,0.2-0.9,0.4
				c-0.2,0.3-0.3,0.4-0.3,1.5C108.6,78.4,108.7,78.6,108.9,78.8z"/>
		</g>
		<g>
			<path class="st6" d="M88.3,31.8h2.4c0.5,0,0.9,0.1,1.2,0.3c0.3,0.3,0.6,0.6,0.6,1.1c0,0.7-0.4,1.2-1.2,1.5l1.4,2.3h-1.1l-1.3-2.2
				h-1.2v2.2h-0.9V31.8z M89.2,34.1h1.4c0.7,0,1-0.4,1-0.8c0-0.3-0.1-0.5-0.3-0.6c-0.2-0.1-0.4-0.2-0.7-0.2h-1.4V34.1z"/>
			<path class="st6" d="M96.6,35.9h-2.3l-0.5,1.2h-1l2.2-5.2h0.8l2.2,5.2h-1L96.6,35.9z M96.4,35.2l-0.9-2.3h0l-0.9,2.3H96.4z"/>
			<path class="st6" d="M98.7,31.8h0.9l2.8,3.7h0v-3.7h0.9v5.2h-0.9l-2.8-3.7h0v3.7h-0.9V31.8z"/>
			<path class="st6" d="M106.6,34.2h2.2v1.1c0,1-1,1.9-2.2,1.9c-1,0-1.6-0.5-1.9-0.9c-0.2-0.3-0.3-0.5-0.3-1.7s0.1-1.4,0.3-1.7
				c0.3-0.5,1-0.9,1.9-0.9c1.2,0,2,0.7,2.1,1.6h-1c-0.1-0.4-0.6-0.8-1.2-0.8c-0.4,0-0.8,0.2-0.9,0.4c-0.2,0.3-0.3,0.4-0.3,1.5
				c0,1.1,0.1,1.2,0.3,1.5c0.2,0.2,0.5,0.4,0.9,0.4c0.7,0,1.2-0.5,1.2-1.1V35h-1.2V34.2z"/>
			<path class="st6" d="M109.8,31.8h3.9v0.8h-3v1.5h2.5v0.7h-2.5v1.5h3v0.8h-3.9V31.8z"/>
		</g>
		<g>
			<polygon class="st6" points="62.7,91.7 62.7,91.7 69.9,89.9 69.9,93.5 			"/>
		</g>
		<g>
			<polygon class="st6" points="137.7,91.7 137.7,91.7 130.5,93.5 130.5,89.9 			"/>
		</g>
		<g>
			<circle class="st6" cx="10.3" cy="74" r="1.1"/>
		</g>
		<g>
			<circle class="st6" cx="10.3" cy="48.4" r="1.1"/>
		</g>
		<g>
			<circle class="st6" cx="54.5" cy="48.4" r="1.1"/>
		</g>
		<g>
			<circle class="st6" cx="54.5" cy="74" r="1.1"/>
		</g>
		<g>
			<circle class="st6" cx="57.9" cy="61.2" r="1.1"/>
		</g>
		<g>
			<circle class="st6" cx="6.9" cy="61.2" r="1.1"/>
		</g>
		<g>
			<circle class="st6" cx="19.6" cy="39.1" r="1.1"/>
		</g>
		<g>
			<circle class="st6" cx="45.2" cy="39.1" r="1.1"/>
		</g>
		<g>
			<circle class="st6" cx="50.4" cy="43.2" r="1.1"/>
		</g>
		<g>
			<circle class="st6" cx="14.4" cy="43.2" r="1.1"/>
		</g>
		<g>
			<circle class="st6" cx="7.8" cy="54.6" r="1.1"/>
		</g>
		<g>
			<circle class="st6" cx="7.8" cy="67.8" r="1.1"/>
		</g>
		<g>
			<circle class="st6" cx="57.1" cy="67.6" r="1.1"/>
		</g>
		<g>
			<circle class="st6" cx="56.9" cy="54.6" r="1.1"/>
		</g>
		<g>
			<path class="st6" d="M37.1,34.6c0,0.9-0.1,1.5-0.6,1.5c-0.4,0-0.6-0.5-0.6-1.4c0-0.9,0.1-1.5,0.6-1.5
				C37,33.3,37.1,33.7,37.1,34.6z M38.2,34.7c0-1.3-0.6-2.3-1.7-2.3c-1,0-1.7,0.8-1.7,2.3c0,1.3,0.6,2.3,1.7,2.3
				C37.7,37,38.2,36,38.2,34.7z"/>
		</g>
		<g>
			<path class="st6" d="M29.6,35.2H30v0.7h-0.3V37h-1.1v-1.1h-1.9v-0.7l2.3-2.7h0.7V35.2z M27.5,35.2h1.1V34h0L27.5,35.2z"/>
		</g>
		<g>
			<path class="st6" d="M33.8,35.2h0.3v0.7h-0.3V37h-1.1v-1.1h-1.9v-0.7l2.3-2.7h0.7V35.2z M31.7,35.2h1.1V34h0L31.7,35.2z"/>
		</g>
		<g>
			<circle class="st6" cx="50.4" cy="79.2" r="1.1"/>
		</g>
		<g>
			<circle class="st6" cx="14.4" cy="79.2" r="1.1"/>
		</g>
		<g>
			<path class="st6" d="M67.7,108.1H70c0.5,0,0.9,0.1,1.2,0.3c0.3,0.3,0.6,0.6,0.6,1.1c0,0.7-0.4,1.2-1.1,1.5l1.3,2.3h-1l-1.2-2.2
				h-1.1v2.2h-0.9V108.1z M68.6,110.4h1.3c0.7,0,1-0.4,1-0.8c0-0.3-0.1-0.5-0.3-0.6c-0.2-0.1-0.3-0.2-0.6-0.2h-1.4V110.4z"/>
			<path class="st6" d="M72.9,108.1h0.9v5.2h-0.9V108.1z"/>
			<path class="st6" d="M75.2,108.1h0.8l2.6,3.7h0v-3.7h0.9v5.2h-0.8l-2.6-3.7h0v3.7h-0.9V108.1z"/>
			<path class="st6" d="M82.9,110.5H85v1.1c0,1-0.9,1.9-2.1,1.9c-0.9,0-1.5-0.5-1.8-0.9c-0.2-0.3-0.3-0.5-0.3-1.7s0.1-1.4,0.3-1.7
				c0.3-0.5,0.9-0.9,1.8-0.9c1.1,0,1.9,0.7,2,1.6H84c-0.1-0.4-0.6-0.8-1.1-0.8c-0.4,0-0.7,0.2-0.9,0.4c-0.2,0.3-0.3,0.4-0.3,1.5
				c0,1.1,0.1,1.2,0.3,1.5c0.2,0.2,0.5,0.4,0.9,0.4c0.7,0,1.2-0.5,1.2-1.1v-0.3h-1.2V110.5z"/>
			<path class="st6" d="M88.4,108.1h0.8l1.7,3.4l1.6-3.4h0.8v5.2h-0.9v-3.3h0l-1.2,2.5h-0.7l-1.2-2.5h0v3.3h-0.9V108.1z"/>
			<path class="st6" d="M94.9,109c0.3-0.5,0.9-0.9,1.8-0.9s1.5,0.5,1.8,0.9c0.2,0.3,0.3,0.5,0.3,1.7s-0.1,1.4-0.3,1.7
				c-0.3,0.5-0.9,0.9-1.8,0.9s-1.5-0.5-1.8-0.9c-0.2-0.3-0.3-0.5-0.3-1.7S94.7,109.3,94.9,109z M95.8,112.2c0.2,0.2,0.5,0.4,0.9,0.4
				c0.4,0,0.7-0.2,0.9-0.4c0.2-0.3,0.3-0.4,0.3-1.5c0-1.1-0.1-1.2-0.3-1.5c-0.2-0.2-0.5-0.4-0.9-0.4c-0.4,0-0.7,0.2-0.9,0.4
				c-0.2,0.3-0.3,0.4-0.3,1.5C95.5,111.8,95.6,112,95.8,112.2z"/>
			<path class="st6" d="M100,108.1h2c0.8,0,1.4,0.3,1.8,0.9c0.3,0.4,0.3,0.6,0.3,1.7c0,1.2-0.1,1.4-0.3,1.8
				c-0.3,0.5-0.9,0.9-1.8,0.9h-2V108.1z M100.9,112.6h1.1c0.5,0,0.9-0.2,1.1-0.5c0.2-0.3,0.2-0.4,0.2-1.4c0-0.9,0-1.2-0.3-1.5
				c-0.3-0.3-0.6-0.4-1-0.4h-1.1V112.6z"/>
			<path class="st6" d="M105.2,108.1h0.9v3.4c0,0.7,0.5,1.1,1.2,1.1c0.7,0,1.2-0.4,1.2-1.1v-3.4h0.9v3.5c0,1.1-0.9,1.8-2.1,1.8
				s-2.1-0.7-2.1-1.8V108.1z"/>
			<path class="st6" d="M110.7,108.1h0.9v4.5h2.8v0.8h-3.7V108.1z"/>
			<path class="st6" d="M118.5,112.2h-2.2l-0.5,1.2h-0.9l2.1-5.2h0.7l2.1,5.2h-0.9L118.5,112.2z M118.2,111.5l-0.8-2.3h0l-0.8,2.3
				H118.2z"/>
			<path class="st6" d="M121,108.8h-1.6v-0.7h4.1v0.7h-1.6v4.5H121V108.8z"/>
			<path class="st6" d="M124.3,109c0.3-0.5,0.9-0.9,1.8-0.9s1.5,0.5,1.8,0.9c0.2,0.3,0.3,0.5,0.3,1.7s-0.1,1.4-0.3,1.7
				c-0.3,0.5-0.9,0.9-1.8,0.9s-1.5-0.5-1.8-0.9c-0.2-0.3-0.3-0.5-0.3-1.7S124.1,109.3,124.3,109z M125.2,112.2
				c0.2,0.2,0.5,0.4,0.9,0.4s0.7-0.2,0.9-0.4c0.2-0.3,0.3-0.4,0.3-1.5c0-1.1-0.1-1.2-0.3-1.5c-0.2-0.2-0.5-0.4-0.9-0.4
				s-0.7,0.2-0.9,0.4c-0.2,0.3-0.3,0.4-0.3,1.5C124.9,111.8,125,112,125.2,112.2z"/>
			<path class="st6" d="M129.4,108.1h2.3c0.5,0,0.9,0.1,1.2,0.3c0.3,0.3,0.6,0.6,0.6,1.1c0,0.7-0.4,1.2-1.1,1.5l1.3,2.3h-1l-1.2-2.2
				h-1.1v2.2h-0.9V108.1z M130.3,110.4h1.3c0.7,0,1-0.4,1-0.8c0-0.3-0.1-0.5-0.3-0.6c-0.2-0.1-0.3-0.2-0.6-0.2h-1.4V110.4z"/>
		</g>
		<g>
			<path class="st6" d="M62,139h3.7v0.8h-2.8v1.5h2.4v0.7h-2.4v2.2H62V139z"/>
			<path class="st6" d="M66.6,139h2.3c0.5,0,0.9,0.1,1.2,0.3c0.3,0.3,0.6,0.6,0.6,1.1c0,0.7-0.4,1.2-1.1,1.5l1.3,2.3h-1l-1.2-2.2
				h-1.1v2.2h-0.9V139z M67.4,141.3h1.3c0.7,0,1-0.4,1-0.8c0-0.3-0.1-0.5-0.3-0.6c-0.2-0.1-0.3-0.2-0.6-0.2h-1.4V141.3z"/>
			<path class="st6" d="M71.8,139h3.7v0.8h-2.8v1.5h2.4v0.7h-2.4v1.5h2.8v0.8h-3.7V139z"/>
			<path class="st6" d="M79.8,143.8c-0.3,0.3-0.8,0.5-1.4,0.5c-0.9,0-1.5-0.5-1.8-0.9c-0.2-0.3-0.3-0.5-0.3-1.7s0.1-1.4,0.3-1.7
				c0.3-0.5,0.9-0.9,1.8-0.9s1.5,0.5,1.8,0.9c0.2,0.3,0.3,0.5,0.3,1.7c0,1.1,0,1.4-0.2,1.6l0.8,0.6l-0.5,0.5L79.8,143.8z
				 M78.3,142.8l0.5-0.5l0.7,0.5c0.1-0.2,0.1-0.5,0.1-1.1c0-1.1-0.1-1.2-0.3-1.5c-0.2-0.2-0.5-0.4-0.9-0.4s-0.7,0.2-0.9,0.4
				c-0.2,0.3-0.3,0.4-0.3,1.5c0,1.1,0.1,1.2,0.3,1.5c0.2,0.2,0.5,0.4,0.9,0.4c0.3,0,0.5-0.1,0.7-0.2L78.3,142.8z"/>
			<path class="st6" d="M81.5,139h0.9v3.4c0,0.7,0.5,1.1,1.2,1.1c0.7,0,1.2-0.4,1.2-1.1V139h0.9v3.5c0,1.1-0.9,1.8-2.1,1.8
				s-2.1-0.7-2.1-1.8V139z"/>
			<path class="st6" d="M87,139h3.7v0.8h-2.8v1.5h2.4v0.7h-2.4v1.5h2.8v0.8H87V139z"/>
			<path class="st6" d="M91.8,139h0.8l2.6,3.7h0V139h0.9v5.2h-0.8l-2.6-3.7h0v3.7h-0.9V139z"/>
			<path class="st6" d="M101.5,142.8c-0.2,1-1,1.5-2,1.5c-0.9,0-1.5-0.5-1.8-0.9c-0.2-0.3-0.3-0.5-0.3-1.7s0.1-1.4,0.3-1.7
				c0.3-0.5,0.9-0.9,1.8-0.9c1.1,0,1.9,0.7,2,1.6h-0.9c-0.1-0.4-0.6-0.8-1.1-0.8c-0.4,0-0.7,0.2-0.9,0.4c-0.2,0.3-0.3,0.4-0.3,1.5
				c0,1.1,0.1,1.2,0.3,1.5c0.2,0.2,0.5,0.4,0.9,0.4c0.5,0,0.9-0.2,1.1-0.7H101.5z"/>
			<path class="st6" d="M103.3,142.1l-1.8-3.1h0.9l1.2,2.3l1.2-2.3h0.9l-1.8,3.1v2.2h-0.8V142.1z"/>
			<path class="st6" d="M108.9,142.9c0.4,0.3,1,0.5,1.7,0.5c0.7,0,1.2-0.3,1.2-0.7c0-0.4-0.2-0.6-0.8-0.7c-0.3,0-0.5-0.1-0.8-0.1
				c-1-0.1-1.5-0.7-1.5-1.5c0-0.9,0.7-1.5,1.9-1.5c0.7,0,1.4,0.2,1.9,0.5l-0.5,0.7c-0.4-0.2-0.9-0.4-1.4-0.4c-0.5,0-1,0.3-1,0.8
				c0,0.3,0.2,0.6,0.8,0.7c0.2,0,0.4,0.1,0.7,0.1c1.1,0.1,1.6,0.8,1.6,1.5c0,1-0.8,1.5-2,1.5c-0.9,0-1.6-0.2-2.2-0.7L108.9,142.9z"
				/>
			<path class="st6" d="M116.9,141.9h-2.3v2.3h-0.9V139h0.9v2.2h2.3V139h0.9v5.2h-0.9V141.9z"/>
			<path class="st6" d="M119.2,139h0.9v5.2h-0.9V139z"/>
			<path class="st6" d="M121.5,139h3.7v0.8h-2.8v1.5h2.4v0.7h-2.4v2.2h-0.9V139z"/>
			<path class="st6" d="M127.1,139.7h-1.6V139h4.1v0.7H128v4.5h-0.9V139.7z"/>
			<path class="st6" d="M130.4,139h3.7v0.8h-2.8v1.5h2.4v0.7h-2.4v1.5h2.8v0.8h-3.7V139z"/>
			<path class="st6" d="M135.2,139h2.3c0.5,0,0.9,0.1,1.2,0.3c0.3,0.3,0.6,0.6,0.6,1.1c0,0.7-0.4,1.2-1.1,1.5l1.3,2.3h-1l-1.2-2.2
				H136v2.2h-0.9V139z M136,141.3h1.3c0.7,0,1-0.4,1-0.8c0-0.3-0.1-0.5-0.3-0.6c-0.2-0.1-0.3-0.2-0.6-0.2H136V141.3z"/>
		</g>
		<g>
			<circle class="st6" cx="100.8" cy="164.8" r="1.4"/>
		</g>
		<g>
			<path class="st6" d="M74.7,183.2H75c0.5,0,0.8-0.3,0.8-0.7s-0.3-0.7-0.8-0.7c-0.3,0-0.6,0.2-0.7,0.6h-0.7
				c0.1-0.7,0.7-1.2,1.4-1.2c0.9,0,1.5,0.6,1.5,1.3c0,0.4-0.1,0.7-0.5,1c0.4,0.2,0.6,0.6,0.6,1c0,0.9-0.7,1.4-1.6,1.4
				c-0.7,0-1.3-0.4-1.5-1.2h0.7c0.1,0.3,0.3,0.5,0.8,0.5c0.4,0,0.8-0.3,0.8-0.7c0-0.5-0.4-0.7-0.8-0.7h-0.3V183.2z"/>
		</g>
		<g>
			<path class="st6" d="M77.4,203.8h2.7v0.7h-2v1c0.2-0.2,0.5-0.3,0.8-0.3c0.4,0,0.7,0.2,0.9,0.3c0.3,0.3,0.4,0.5,0.4,1.3
				c0,0.6-0.1,0.9-0.3,1.1c-0.2,0.2-0.6,0.5-1.1,0.5c-0.7,0-1.4-0.3-1.5-1.2H78c0.1,0.3,0.3,0.5,0.7,0.5c0.7,0,0.7-0.6,0.7-1
				c0-0.5-0.1-0.9-0.7-0.9c-0.3,0-0.5,0.1-0.7,0.4h-0.7V203.8z"/>
		</g>
		<g>
			<path class="st6" d="M78.4,174.5l2-2.3c0.2-0.2,0.2-0.3,0.2-0.5c0-0.3-0.3-0.7-0.7-0.7c-0.4,0-0.7,0.3-0.8,0.7h-0.7
				c0-0.8,0.7-1.3,1.4-1.3c0.9,0,1.5,0.6,1.5,1.3c0,0.3-0.1,0.6-0.3,0.8l-1.7,1.9h2v0.7h-2.9V174.5z"/>
		</g>
		<g>
			<path class="st6" d="M89.5,164.3l-0.7,0.5v-0.7l0.7-0.5h0.7v4.6h-0.7V164.3z"/>
		</g>
		<g>
			<path class="st6" d="M121.7,203.8h2.7v0.7h-2v1c0.2-0.2,0.5-0.3,0.8-0.3c0.4,0,0.7,0.2,0.9,0.3c0.3,0.3,0.4,0.5,0.4,1.3
				c0,0.6-0.1,0.9-0.3,1.1c-0.2,0.2-0.6,0.5-1.1,0.5c-0.7,0-1.4-0.3-1.5-1.2h0.7c0.1,0.3,0.3,0.5,0.7,0.5c0.7,0,0.7-0.6,0.7-1
				c0-0.5-0.1-0.9-0.7-0.9c-0.3,0-0.5,0.1-0.7,0.4h-0.7V203.8z"/>
		</g>
		<g>
			<path class="st6" d="M125.1,196.5l1.7-3.3h0.8l-1.7,3.3h1.3v-1.3h0.7v1.3h0.4v0.6H128v0.7h-0.7v-0.7h-2.1V196.5z"/>
		</g>
		<g>
			<path class="st6" d="M126.3,183.2h0.3c0.5,0,0.8-0.3,0.8-0.7s-0.3-0.7-0.8-0.7c-0.3,0-0.6,0.2-0.7,0.6h-0.7
				c0.1-0.7,0.7-1.2,1.4-1.2c0.9,0,1.5,0.6,1.5,1.3c0,0.4-0.1,0.7-0.5,1c0.4,0.2,0.6,0.6,0.6,1c0,0.9-0.7,1.4-1.6,1.4
				c-0.7,0-1.3-0.4-1.5-1.2h0.7c0.1,0.3,0.3,0.5,0.8,0.5c0.4,0,0.8-0.3,0.8-0.7c0-0.5-0.4-0.7-0.8-0.7h-0.3V183.2z"/>
		</g>
		<g>
			<path class="st6" d="M111.8,164.3l-0.7,0.5v-0.7l0.7-0.5h0.7v4.6h-0.7V164.3z"/>
		</g>
		<g>
			<path class="st6" d="M92.6,156.7h2.7v0.7h-2v1c0.2-0.2,0.5-0.3,0.8-0.3c0.4,0,0.7,0.2,0.9,0.3c0.3,0.3,0.4,0.5,0.4,1.3
				c0,0.6-0.1,0.9-0.3,1.1c-0.2,0.2-0.6,0.5-1.1,0.5c-0.7,0-1.4-0.3-1.5-1.2h0.7c0.1,0.3,0.3,0.5,0.7,0.5c0.7,0,0.7-0.6,0.7-1
				c0-0.5-0.1-0.9-0.7-0.9c-0.3,0-0.5,0.1-0.7,0.4h-0.7V156.7z"/>
			<path class="st6" d="M96.2,158c0-0.9,0.7-1.3,1.5-1.3c0.8,0,1.5,0.5,1.5,1.3v2c0,0.9-0.7,1.3-1.5,1.3c-0.8,0-1.5-0.5-1.5-1.3V158
				z M98.4,158c0-0.4-0.3-0.7-0.7-0.7c-0.4,0-0.7,0.3-0.7,0.7v2c0,0.4,0.3,0.7,0.7,0.7c0.4,0,0.7-0.3,0.7-0.7V158z"/>
			<path class="st6" d="M101.4,156.6h0.6l-1.7,4.7h-0.6L101.4,156.6z"/>
			<path class="st6" d="M102.5,156.7h2.7v0.7h-2v1c0.2-0.2,0.5-0.3,0.8-0.3c0.4,0,0.7,0.2,0.9,0.3c0.3,0.3,0.4,0.5,0.4,1.3
				c0,0.6-0.1,0.9-0.3,1.1c-0.2,0.2-0.6,0.5-1.1,0.5c-0.7,0-1.4-0.3-1.5-1.2h0.7c0.1,0.3,0.3,0.5,0.7,0.5c0.7,0,0.7-0.6,0.7-1
				c0-0.5-0.1-0.9-0.7-0.9c-0.3,0-0.5,0.1-0.7,0.4h-0.7V156.7z"/>
			<path class="st6" d="M106.1,158c0-0.9,0.7-1.3,1.5-1.3c0.8,0,1.5,0.5,1.5,1.3v2c0,0.9-0.7,1.3-1.5,1.3c-0.8,0-1.5-0.5-1.5-1.3
				V158z M108.3,158c0-0.4-0.3-0.7-0.7-0.7c-0.4,0-0.7,0.3-0.7,0.7v2c0,0.4,0.3,0.7,0.7,0.7c0.4,0,0.7-0.3,0.7-0.7V158z"/>
		</g>
		<g>
			<path class="st6" d="M119.6,174.5l2-2.3c0.2-0.2,0.2-0.3,0.2-0.5c0-0.3-0.3-0.7-0.7-0.7c-0.4,0-0.7,0.3-0.8,0.7h-0.7
				c0-0.8,0.7-1.3,1.4-1.3c0.9,0,1.5,0.6,1.5,1.3c0,0.3-0.1,0.6-0.3,0.8l-1.7,1.9h2v0.7h-2.9V174.5z"/>
		</g>
		<g>
			<path class="st6" d="M73.1,196.5l1.7-3.3h0.8l-1.7,3.3h1.3v-1.3h0.7v1.3h0.4v0.6h-0.4v0.7h-0.7v-0.7h-2.1V196.5z"/>
		</g>
		<g>
			<path class="st6" d="M141.2,192.5l2-2.3c0.2-0.2,0.2-0.3,0.2-0.5c0-0.3-0.3-0.7-0.7-0.7c-0.4,0-0.7,0.3-0.8,0.7h-0.7
				c0-0.8,0.7-1.3,1.4-1.3c0.9,0,1.5,0.6,1.5,1.3c0,0.3-0.1,0.6-0.3,0.8l-1.7,1.9h2v0.7h-2.9V192.5z"/>
		</g>
		<g>
			<path class="st6" d="M146.2,202.2l-0.7,0.5V202l0.7-0.5h0.7v4.6h-0.7V202.2z"/>
		</g>
		<g>
			<path class="st6" d="M145.6,176.9h0.3c0.5,0,0.8-0.3,0.8-0.7s-0.3-0.7-0.8-0.7c-0.3,0-0.6,0.2-0.7,0.6h-0.7
				c0.1-0.7,0.7-1.2,1.4-1.2c0.9,0,1.5,0.6,1.5,1.3c0,0.4-0.1,0.7-0.5,1c0.4,0.2,0.6,0.6,0.6,1c0,0.9-0.7,1.4-1.6,1.4
				c-0.7,0-1.3-0.4-1.5-1.2h0.7c0.1,0.3,0.3,0.5,0.8,0.5c0.4,0,0.8-0.3,0.8-0.7c0-0.5-0.4-0.7-0.8-0.7h-0.3V176.9z"/>
		</g>
		<g>
			<path class="st6" d="M154,167.8l1.7-3.3h0.8l-1.7,3.3h1.3v-1.3h0.7v1.3h0.4v0.6h-0.4v0.7h-0.7v-0.7H154V167.8z"/>
		</g>
		<g>
			<path class="st6" d="M192.5,206.1h-0.8l1.1-2h0c-0.1,0-0.3,0.1-0.4,0.1c-0.7,0-1.2-0.4-1.2-1.3c0-1.1,0.8-1.5,1.5-1.5
				c0.7,0,1.4,0.5,1.4,1.4c0,0.3-0.1,0.5-0.2,0.8L192.5,206.1z M193.3,202.9c0-0.5-0.3-0.8-0.7-0.8c-0.3,0-0.7,0.2-0.7,0.8
				c0,0.5,0.3,0.8,0.7,0.8S193.3,203.4,193.3,202.9z"/>
		</g>
		<g>
			<path class="st6" d="M194.8,190.7c-0.3-0.2-0.5-0.5-0.5-0.9c0-0.7,0.6-1.3,1.5-1.3c0.8,0,1.5,0.6,1.5,1.3c0,0.4-0.2,0.7-0.5,0.9
				c0.4,0.2,0.6,0.6,0.6,1c0,0.8-0.7,1.4-1.6,1.4s-1.6-0.6-1.6-1.4C194.2,191.3,194.4,190.9,194.8,190.7z M195.7,192.5
				c0.4,0,0.8-0.3,0.8-0.7c0-0.4-0.4-0.7-0.8-0.7s-0.8,0.3-0.8,0.7C194.9,192.2,195.3,192.5,195.7,192.5z M195.7,190.4
				c0.4,0,0.7-0.2,0.7-0.7s-0.4-0.7-0.7-0.7s-0.7,0.2-0.7,0.7S195.4,190.4,195.7,190.4z"/>
		</g>
		<g>
			<path class="st6" d="M190.8,174.9h2.9v0.7l-1.7,4h-0.8l1.7-4h-1.4v0.7h-0.7V174.9z"/>
		</g>
		<g>
			<path class="st6" d="M182.5,164.4h0.8l-1.1,2h0c0.1,0,0.3-0.1,0.4-0.1c0.7,0,1.2,0.4,1.2,1.3c0,1.1-0.8,1.5-1.5,1.5
				c-0.7,0-1.4-0.5-1.4-1.4c0-0.3,0.1-0.5,0.2-0.8L182.5,164.4z M181.6,167.7c0,0.5,0.3,0.8,0.7,0.8c0.3,0,0.7-0.2,0.7-0.8
				c0-0.5-0.3-0.8-0.7-0.8S181.6,167.2,181.6,167.7z"/>
		</g>
		<g>
			<path class="st6" d="M153.8,213.9c0-0.9,0.7-1.3,1.5-1.3c0.8,0,1.5,0.5,1.5,1.3v2c0,0.9-0.7,1.3-1.5,1.3c-0.8,0-1.5-0.5-1.5-1.3
				V213.9z M156,214c0-0.4-0.3-0.7-0.7-0.7c-0.4,0-0.7,0.3-0.7,0.7v2c0,0.5,0.3,0.7,0.7,0.7c0.4,0,0.7-0.3,0.7-0.7V214z"/>
		</g>
		<g>
			<path class="st6" d="M180.5,213.3l-0.7,0.5v-0.7l0.7-0.5h0.7v4.6h-0.7V213.3z"/>
			<path class="st6" d="M182.9,213.9c0-0.9,0.7-1.3,1.5-1.3c0.8,0,1.5,0.5,1.5,1.3v2c0,0.9-0.7,1.3-1.5,1.3c-0.8,0-1.5-0.5-1.5-1.3
				V213.9z M185.1,214c0-0.4-0.3-0.7-0.7-0.7c-0.4,0-0.7,0.3-0.7,0.7v2c0,0.5,0.3,0.7,0.7,0.7c0.4,0,0.7-0.3,0.7-0.7V214z"/>
		</g>
		<g>
			<path class="st6" d="M167.8,161.2h2.7v0.7h-2v1c0.2-0.2,0.5-0.3,0.8-0.3c0.4,0,0.7,0.2,0.9,0.3c0.3,0.3,0.4,0.5,0.4,1.3
				c0,0.6-0.1,0.9-0.3,1.1c-0.2,0.2-0.6,0.5-1.1,0.5c-0.7,0-1.4-0.3-1.5-1.2h0.7c0.1,0.3,0.3,0.5,0.7,0.5c0.7,0,0.7-0.6,0.7-1
				c0-0.5-0.1-0.9-0.7-0.9c-0.3,0-0.5,0.1-0.7,0.4h-0.7V161.2z"/>
		</g>
		<g>
			<path class="st6" d="M4.4,192.5l2-2.3c0.2-0.2,0.2-0.3,0.2-0.5c0-0.3-0.3-0.7-0.7-0.7c-0.4,0-0.7,0.3-0.8,0.7H4.4
				c0-0.8,0.7-1.3,1.4-1.3c0.9,0,1.5,0.6,1.5,1.3c0,0.3-0.1,0.6-0.3,0.8l-1.7,1.9h2v0.7H4.4V192.5z"/>
		</g>
		<g>
			<path class="st6" d="M9.4,202.2l-0.7,0.5V202l0.7-0.5h0.7v4.6H9.4V202.2z"/>
		</g>
		<g>
			<path class="st6" d="M8.8,176.9H9c0.5,0,0.8-0.3,0.8-0.7s-0.3-0.7-0.8-0.7c-0.3,0-0.6,0.2-0.7,0.6H7.6c0.1-0.7,0.7-1.2,1.4-1.2
				c0.9,0,1.5,0.6,1.5,1.3c0,0.4-0.1,0.7-0.5,1c0.4,0.2,0.6,0.6,0.6,1c0,0.9-0.7,1.4-1.6,1.4c-0.7,0-1.3-0.4-1.5-1.2h0.7
				c0.1,0.3,0.3,0.5,0.8,0.5c0.4,0,0.8-0.3,0.8-0.7c0-0.5-0.4-0.7-0.8-0.7H8.8V176.9z"/>
		</g>
		<g>
			<path class="st6" d="M17.2,167.8l1.7-3.3h0.8l-1.7,3.3h1.3v-1.3h0.7v1.3h0.4v0.6h-0.4v0.7h-0.7v-0.7h-2.1V167.8z"/>
		</g>
		<g>
			<path class="st6" d="M55.7,206.1h-0.8l1.1-2h0c-0.1,0-0.3,0.1-0.4,0.1c-0.7,0-1.2-0.4-1.2-1.3c0-1.1,0.8-1.5,1.5-1.5
				c0.7,0,1.4,0.5,1.4,1.4c0,0.3-0.1,0.5-0.2,0.8L55.7,206.1z M56.5,202.9c0-0.5-0.3-0.8-0.7-0.8c-0.3,0-0.7,0.2-0.7,0.8
				c0,0.5,0.3,0.8,0.7,0.8C56.2,203.6,56.5,203.4,56.5,202.9z"/>
		</g>
		<g>
			<path class="st6" d="M58,190.7c-0.3-0.2-0.5-0.5-0.5-0.9c0-0.7,0.6-1.3,1.5-1.3c0.8,0,1.5,0.6,1.5,1.3c0,0.4-0.2,0.7-0.5,0.9
				c0.4,0.2,0.6,0.6,0.6,1c0,0.8-0.7,1.4-1.6,1.4c-0.9,0-1.6-0.6-1.6-1.4C57.4,191.3,57.6,190.9,58,190.7z M58.9,192.5
				c0.4,0,0.8-0.3,0.8-0.7c0-0.4-0.4-0.7-0.8-0.7c-0.4,0-0.8,0.3-0.8,0.7C58.1,192.2,58.5,192.5,58.9,192.5z M58.9,190.4
				c0.4,0,0.7-0.2,0.7-0.7s-0.4-0.7-0.7-0.7c-0.4,0-0.7,0.2-0.7,0.7S58.6,190.4,58.9,190.4z"/>
		</g>
		<g>
			<path class="st6" d="M54,174.9h2.9v0.7l-1.7,4h-0.8l1.7-4h-1.4v0.7H54V174.9z"/>
		</g>
		<g>
			<path class="st6" d="M45.7,164.4h0.8l-1.1,2h0c0.1,0,0.3-0.1,0.4-0.1c0.7,0,1.2,0.4,1.2,1.3c0,1.1-0.8,1.5-1.5,1.5
				c-0.7,0-1.4-0.5-1.4-1.4c0-0.3,0.1-0.5,0.2-0.8L45.7,164.4z M44.8,167.7c0,0.5,0.3,0.8,0.7,0.8c0.3,0,0.7-0.2,0.7-0.8
				c0-0.5-0.3-0.8-0.7-0.8C45.2,166.9,44.8,167.2,44.8,167.7z"/>
		</g>
		<g>
			<path class="st6" d="M17,213.9c0-0.9,0.7-1.3,1.5-1.3c0.8,0,1.5,0.5,1.5,1.3v2c0,0.9-0.7,1.3-1.5,1.3c-0.8,0-1.5-0.5-1.5-1.3
				V213.9z M19.2,214c0-0.4-0.3-0.7-0.7-0.7c-0.4,0-0.7,0.3-0.7,0.7v2c0,0.5,0.3,0.7,0.7,0.7c0.4,0,0.7-0.3,0.7-0.7V214z"/>
		</g>
		<g>
			<path class="st6" d="M43.7,213.3l-0.7,0.5v-0.7l0.7-0.5h0.7v4.6h-0.7V213.3z"/>
			<path class="st6" d="M46.1,213.9c0-0.9,0.7-1.3,1.5-1.3s1.5,0.5,1.5,1.3v2c0,0.9-0.7,1.3-1.5,1.3s-1.5-0.5-1.5-1.3V213.9z
				 M48.3,214c0-0.4-0.3-0.7-0.7-0.7s-0.7,0.3-0.7,0.7v2c0,0.5,0.3,0.7,0.7,0.7s0.7-0.3,0.7-0.7V214z"/>
		</g>
		<g>
			<path class="st6" d="M31,161.2h2.7v0.7h-2v1c0.2-0.2,0.5-0.3,0.8-0.3c0.4,0,0.7,0.2,0.9,0.3c0.3,0.3,0.4,0.5,0.4,1.3
				c0,0.6-0.1,0.9-0.3,1.1c-0.2,0.2-0.6,0.5-1.1,0.5c-0.7,0-1.4-0.3-1.5-1.2h0.7c0.1,0.3,0.3,0.5,0.7,0.5c0.7,0,0.7-0.6,0.7-1
				c0-0.5-0.1-0.9-0.7-0.9c-0.3,0-0.5,0.1-0.7,0.4H31V161.2z"/>
		</g>
		<g>
			<path class="st6" d="M87.2,212.1h0.8l-1.1,2h0c0.1,0,0.3-0.1,0.4-0.1c0.7,0,1.2,0.4,1.2,1.3c0,1.1-0.8,1.5-1.5,1.5
				c-0.7,0-1.4-0.5-1.4-1.4c0-0.3,0.1-0.5,0.2-0.8L87.2,212.1z M86.4,215.3c0,0.5,0.3,0.8,0.7,0.8c0.3,0,0.7-0.2,0.7-0.8
				c0-0.5-0.3-0.8-0.7-0.8C86.7,214.5,86.4,214.8,86.4,215.3z"/>
		</g>
		<g>
			<path class="st6" d="M113.9,212.1h0.8l-1.1,2h0c0.1,0,0.3-0.1,0.4-0.1c0.7,0,1.2,0.4,1.2,1.3c0,1.1-0.8,1.5-1.5,1.5
				c-0.7,0-1.4-0.5-1.4-1.4c0-0.3,0.1-0.5,0.2-0.8L113.9,212.1z M113.1,215.3c0,0.5,0.3,0.8,0.7,0.8c0.3,0,0.7-0.2,0.7-0.8
				c0-0.5-0.3-0.8-0.7-0.8S113.1,214.8,113.1,215.3z"/>
		</g>
	</g>
	<g>
		<path class="st6" d="M93.8,243.2h-2l-0.4,1h-0.8l1.9-4.6h0.7l1.9,4.6h-0.8L93.8,243.2z M93.6,242.6l-0.7-2h0l-0.7,2H93.6z"/>
		<path class="st6" d="M95.5,239.6h0.8v3c0,0.6,0.5,1,1,1c0.6,0,1-0.3,1-1v-3h0.8v3.1c0,1-0.8,1.6-1.8,1.6c-1,0-1.8-0.6-1.8-1.6
			V239.6z"/>
		<path class="st6" d="M100.3,239.6h1.8c0.7,0,1.2,0.3,1.6,0.8c0.3,0.4,0.3,0.6,0.3,1.5c0,1-0.1,1.2-0.3,1.6
			c-0.3,0.4-0.8,0.8-1.6,0.8h-1.8V239.6z M101.1,243.6h0.9c0.4,0,0.8-0.1,1-0.4c0.2-0.2,0.2-0.4,0.2-1.2c0-0.8,0-1-0.2-1.3
			c-0.2-0.3-0.5-0.4-0.9-0.4h-0.9V243.6z"/>
		<path class="st6" d="M105.1,239.6h0.8v4.6h-0.8V239.6z"/>
		<path class="st6" d="M107.2,240.4c0.2-0.4,0.8-0.8,1.6-0.8c0.8,0,1.4,0.4,1.6,0.8c0.2,0.3,0.2,0.4,0.2,1.5s-0.1,1.3-0.2,1.5
			c-0.2,0.4-0.8,0.8-1.6,0.8c-0.8,0-1.4-0.4-1.6-0.8c-0.2-0.3-0.2-0.4-0.2-1.5S107,240.7,107.2,240.4z M108,243.2
			c0.2,0.2,0.4,0.3,0.8,0.3s0.6-0.2,0.8-0.3c0.2-0.2,0.3-0.4,0.3-1.3s-0.1-1.1-0.3-1.3c-0.2-0.2-0.4-0.3-0.8-0.3s-0.6,0.2-0.8,0.3
			c-0.2,0.2-0.3,0.4-0.3,1.3S107.8,243,108,243.2z"/>
	</g>
	<g>
		<path class="st2" d="M95.3,277.3H96l1.4,2.9l1.4-2.9h0.7v4.4h-0.7v-2.8h0l-1,2.1H97l-1-2.1h0v2.8h-0.7V277.3z"/>
		<path class="st2" d="M101.2,277.3h0.7v4.4h-0.7V277.3z"/>
		<path class="st2" d="M105,280l-1.1,1.7h-0.8l1.5-2.3l-1.4-2.2h0.8l1,1.5l1-1.5h0.8l-1.4,2.2l1.5,2.3h-0.8L105,280z"/>
	</g>
	<g>
		<path class="st2" d="M54.8,277.4h1.7c0.7,0,1.2,0.3,1.5,0.7c0.2,0.4,0.3,0.5,0.3,1.5c0,1-0.1,1.2-0.3,1.5
			c-0.3,0.4-0.8,0.7-1.5,0.7h-1.7V277.4z M55.6,281.2h0.9c0.4,0,0.7-0.1,0.9-0.4c0.2-0.2,0.2-0.3,0.2-1.2c0-0.8,0-1-0.2-1.2
			c-0.2-0.3-0.5-0.4-0.9-0.4h-0.9V281.2z"/>
		<path class="st2" d="M59.9,278.1c0.2-0.4,0.8-0.8,1.5-0.8s1.3,0.4,1.5,0.8c0.2,0.3,0.2,0.4,0.2,1.5s-0.1,1.2-0.2,1.5
			c-0.2,0.4-0.8,0.8-1.5,0.8s-1.3-0.4-1.5-0.8c-0.2-0.3-0.2-0.4-0.2-1.5S59.7,278.4,59.9,278.1z M60.7,280.8
			c0.2,0.2,0.4,0.3,0.8,0.3c0.4,0,0.6-0.1,0.8-0.3c0.2-0.2,0.2-0.3,0.2-1.3s-0.1-1-0.2-1.3c-0.2-0.2-0.4-0.3-0.8-0.3
			c-0.4,0-0.6,0.1-0.8,0.3c-0.2,0.2-0.2,0.3-0.2,1.3S60.5,280.6,60.7,280.8z"/>
		<path class="st2" d="M64.2,277.4H65l0.8,3.2h0l1-3.2h0.5l1,3.2h0l0.8-3.2h0.8l-1.2,4.4H68l-0.9-3.2h0l-0.9,3.2h-0.6L64.2,277.4z"
			/>
		<path class="st2" d="M71.1,277.4h0.7l2.2,3.2h0v-3.2h0.7v4.4h-0.7l-2.2-3.2h0v3.2h-0.7V277.4z"/>
	</g>
	<g>
		<path class="st2" d="M132.7,277.4h0.7v2.9c0,0.6,0.4,0.9,1,0.9s1-0.3,1-0.9v-2.9h0.7v2.9c0,0.9-0.8,1.5-1.8,1.5s-1.8-0.6-1.8-1.5
			V277.4z"/>
		<path class="st2" d="M137.8,277.4h1.8c0.4,0,0.7,0,1.1,0.3c0.3,0.2,0.5,0.6,0.5,1.1c0,0.6-0.5,1.3-1.5,1.3h-1.1v1.7h-0.7V277.4z
			 M138.5,279.4h1.1c0.6,0,0.8-0.4,0.8-0.7c0-0.3-0.1-0.5-0.3-0.6c-0.2-0.1-0.3-0.1-0.5-0.1h-1.1V279.4z"/>
	</g>
	<g>
		<path class="st6" d="M39.8,303.2h-2l-0.4,1h-0.8l1.9-4.6h0.7l1.9,4.6h-0.8L39.8,303.2z M39.6,302.5l-0.7-2h0l-0.7,2H39.6z"/>
		<path class="st6" d="M41.5,299.6h0.8v3c0,0.6,0.5,1,1,1c0.6,0,1-0.3,1-1v-3h0.8v3.1c0,1-0.8,1.6-1.8,1.6c-1,0-1.8-0.6-1.8-1.6
			V299.6z"/>
		<path class="st6" d="M46.3,299.6h1.8c0.7,0,1.2,0.3,1.6,0.8c0.3,0.4,0.3,0.6,0.3,1.5c0,1-0.1,1.2-0.3,1.6
			c-0.3,0.4-0.8,0.8-1.6,0.8h-1.8V299.6z M47.1,303.5h0.9c0.4,0,0.8-0.1,1-0.4c0.2-0.2,0.2-0.4,0.2-1.2c0-0.8,0-1-0.2-1.3
			c-0.2-0.3-0.5-0.4-0.9-0.4h-0.9V303.5z"/>
		<path class="st6" d="M51.1,299.6h0.8v4.6h-0.8V299.6z"/>
		<path class="st6" d="M53.2,300.4c0.2-0.4,0.8-0.8,1.6-0.8s1.4,0.4,1.6,0.8c0.2,0.3,0.2,0.4,0.2,1.5s-0.1,1.3-0.2,1.5
			c-0.2,0.4-0.8,0.8-1.6,0.8s-1.4-0.4-1.6-0.8c-0.2-0.3-0.2-0.4-0.2-1.5S53,300.6,53.2,300.4z M54,303.2c0.2,0.2,0.4,0.3,0.8,0.3
			c0.4,0,0.6-0.2,0.8-0.3c0.2-0.2,0.3-0.4,0.3-1.3s-0.1-1.1-0.3-1.3c-0.2-0.2-0.4-0.3-0.8-0.3c-0.4,0-0.6,0.2-0.8,0.3
			c-0.2,0.2-0.3,0.4-0.3,1.3S53.8,303,54,303.2z"/>
	</g>
	<g>
		<path class="st6" d="M143.5,302.7c-0.2,0.9-0.9,1.3-1.8,1.3c-0.8,0-1.4-0.4-1.6-0.8c-0.2-0.3-0.2-0.4-0.2-1.5s0.1-1.3,0.2-1.5
			c0.2-0.4,0.8-0.8,1.6-0.8c1,0,1.6,0.6,1.8,1.4h-0.8c-0.1-0.4-0.5-0.7-1-0.7c-0.4,0-0.6,0.2-0.8,0.3c-0.2,0.2-0.3,0.4-0.3,1.3
			s0.1,1.1,0.3,1.3c0.2,0.2,0.4,0.3,0.8,0.3c0.4,0,0.8-0.2,1-0.6H143.5z"/>
		<path class="st6" d="M146.9,302.9h-2l-0.4,1h-0.8l1.9-4.6h0.7l1.9,4.6h-0.8L146.9,302.9z M146.7,302.3l-0.7-2h0l-0.7,2H146.7z"/>
		<path class="st6" d="M148.9,299.3h2c0.4,0,0.8,0.1,1,0.3c0.3,0.2,0.5,0.6,0.5,1c0,0.6-0.4,1.1-1,1.3l1.2,2.1h-0.9l-1.1-2h-1v2
			h-0.8V299.3z M149.6,301.4h1.2c0.6,0,0.9-0.3,0.9-0.7c0-0.2-0.1-0.4-0.3-0.5c-0.1-0.1-0.3-0.1-0.6-0.1h-1.2V301.4z"/>
		<path class="st6" d="M153.5,299.3h2c0.4,0,0.8,0.1,1,0.3c0.3,0.2,0.5,0.6,0.5,1c0,0.6-0.4,1.1-1,1.3l1.2,2.1h-0.9l-1.1-2h-1v2
			h-0.8V299.3z M154.2,301.4h1.2c0.6,0,0.9-0.3,0.9-0.7c0-0.2-0.1-0.4-0.3-0.5c-0.1-0.1-0.3-0.1-0.6-0.1h-1.2V301.4z"/>
		<path class="st6" d="M158,299.3h0.8v4.6H158V299.3z"/>
		<path class="st6" d="M160.1,299.3h3.3v0.7h-2.5v1.3h2.1v0.6h-2.1v1.4h2.5v0.7h-3.3V299.3z"/>
		<path class="st6" d="M164.3,299.3h2c0.4,0,0.8,0.1,1,0.3c0.3,0.2,0.5,0.6,0.5,1c0,0.6-0.4,1.1-1,1.3l1.2,2.1h-0.9l-1.1-2h-1v2
			h-0.8V299.3z M165.1,301.4h1.2c0.6,0,0.9-0.3,0.9-0.7c0-0.2-0.1-0.4-0.3-0.5c-0.1-0.1-0.3-0.1-0.6-0.1h-1.2V301.4z"/>
	</g>
	<g>
		<g>
			<path class="st6" d="M17.5,337.3h0.8v4.6h-0.8V337.3z"/>
			<path class="st6" d="M19.6,337.3h0.7l2.3,3.3h0v-3.3h0.8v4.6h-0.7l-2.3-3.3h0v3.3h-0.8V337.3z"/>
			<path class="st6" d="M24.7,337.3h1.9c0.4,0,0.8,0,1.2,0.3c0.3,0.2,0.6,0.6,0.6,1.1c0,0.7-0.6,1.4-1.6,1.4h-1.2v1.8h-0.8V337.3z
				 M25.5,339.4h1.2c0.6,0,0.9-0.4,0.9-0.8c0-0.3-0.1-0.5-0.3-0.6c-0.2-0.1-0.3-0.1-0.6-0.1h-1.1V339.4z"/>
			<path class="st6" d="M29.1,337.3h0.8v3c0,0.6,0.5,1,1,1c0.6,0,1-0.3,1-1v-3h0.8v3.1c0,1-0.8,1.6-1.8,1.6c-1,0-1.8-0.6-1.8-1.6
				V337.3z"/>
			<path class="st6" d="M34.8,337.9h-1.4v-0.6H37v0.6h-1.4v4h-0.8V337.9z"/>
			<path class="st6" d="M38.6,338l-0.7,0.5v-0.7l0.7-0.5h0.7v4.6h-0.7V338z"/>
		</g>
		<g>
			<path class="st6" d="M134.9,340.4c-0.2,0.9-0.9,1.3-1.8,1.3c-0.8,0-1.4-0.4-1.6-0.8c-0.2-0.3-0.2-0.4-0.2-1.5s0.1-1.3,0.2-1.5
				c0.2-0.4,0.8-0.8,1.6-0.8c1,0,1.6,0.6,1.8,1.4H134c-0.1-0.4-0.5-0.7-1-0.7c-0.4,0-0.6,0.2-0.8,0.3c-0.2,0.2-0.3,0.4-0.3,1.3
				s0.1,1.1,0.3,1.3c0.2,0.2,0.4,0.3,0.8,0.3c0.4,0,0.8-0.2,1-0.6H134.9z"/>
			<path class="st6" d="M135.1,337h0.8l1.2,3.5h0l1.2-3.5h0.8l-1.7,4.6h-0.6L135.1,337z"/>
			<path class="st6" d="M140.7,337.7l-0.7,0.5v-0.7l0.7-0.5h0.7v4.6h-0.7V337.7z"/>
		</g>
		<g>
			<path class="st6" d="M53.5,337.3h0.8v4.6h-0.8V337.3z"/>
			<path class="st6" d="M55.6,337.3h0.7l2.3,3.3h0v-3.3h0.8v4.6h-0.7l-2.3-3.3h0v3.3h-0.8V337.3z"/>
			<path class="st6" d="M60.7,337.3h1.9c0.4,0,0.8,0,1.2,0.3c0.3,0.2,0.6,0.6,0.6,1.1c0,0.7-0.6,1.4-1.6,1.4h-1.2v1.8h-0.8V337.3z
				 M61.5,339.4h1.2c0.6,0,0.9-0.4,0.9-0.8c0-0.3-0.1-0.5-0.3-0.6c-0.2-0.1-0.3-0.1-0.6-0.1h-1.1V339.4z"/>
			<path class="st6" d="M65.1,337.3h0.8v3c0,0.6,0.5,1,1,1c0.6,0,1-0.3,1-1v-3h0.8v3.1c0,1-0.8,1.6-1.8,1.6c-1,0-1.8-0.6-1.8-1.6
				V337.3z"/>
			<path class="st6" d="M70.8,337.9h-1.4v-0.6H73v0.6h-1.4v4h-0.8V337.9z"/>
			<path class="st6" d="M73.4,341.3l2-2.3c0.2-0.2,0.2-0.3,0.2-0.5c0-0.3-0.3-0.7-0.7-0.7c-0.4,0-0.7,0.3-0.8,0.7h-0.7
				c0-0.8,0.7-1.3,1.4-1.3c0.9,0,1.5,0.6,1.5,1.3c0,0.3-0.1,0.6-0.3,0.8l-1.7,1.9h2v0.7h-2.9V341.3z"/>
		</g>
		<g>
			<path class="st6" d="M170.9,340.4c-0.2,0.9-0.9,1.3-1.8,1.3c-0.8,0-1.4-0.4-1.6-0.8c-0.2-0.3-0.2-0.4-0.2-1.5s0.1-1.3,0.2-1.5
				c0.2-0.4,0.8-0.8,1.6-0.8c1,0,1.6,0.6,1.8,1.4H170c-0.1-0.4-0.5-0.7-1-0.7c-0.4,0-0.6,0.2-0.8,0.3c-0.2,0.2-0.3,0.4-0.3,1.3
				s0.1,1.1,0.3,1.3c0.2,0.2,0.4,0.3,0.8,0.3c0.4,0,0.8-0.2,1-0.6H170.9z"/>
			<path class="st6" d="M171.1,337h0.8l1.2,3.5h0l1.2-3.5h0.8l-1.7,4.6h-0.6L171.1,337z"/>
			<path class="st6" d="M175.5,341l2-2.3c0.2-0.2,0.2-0.3,0.2-0.5c0-0.3-0.3-0.7-0.7-0.7c-0.4,0-0.7,0.3-0.8,0.7h-0.7
				c0-0.8,0.7-1.3,1.4-1.3c0.9,0,1.5,0.6,1.5,1.3c0,0.3-0.1,0.6-0.3,0.8l-1.7,1.9h2v0.7h-2.9V341z"/>
		</g>
		<path class="st6" d="M72,354.9c0-1.7,1.6-2.9,3.8-2.9c0.6,0,1.1,0.1,1.6,0.2l-0.1,0.8c-0.4-0.2-1-0.3-1.5-0.3
			c-1.6,0-2.7,0.9-2.7,2.2c0,1.3,1.2,2.2,2.7,2.2c0.5,0,1.2-0.1,1.6-0.3l0.1,0.8c-0.5,0.2-1.2,0.2-1.6,0.2
			C73.5,357.8,72,356.7,72,354.9"/>
		<polyline class="st6" points="85,357.7 83.4,352.8 83.4,352.8 81.8,357.7 80.4,357.7 78.3,352.1 79.4,352.1 81.1,356.9 
			81.1,356.9 82.7,352.1 84.1,352.1 85.7,356.9 85.7,356.9 87.4,352.1 88.5,352.1 86.3,357.7 85,357.7 		"/>
		<path class="st6" d="M90.7,357.1c-0.8-0.6-1.1-1.4-1.1-2.3c0-0.7,0.3-1.4,0.8-2c0.5-0.6,1.3-0.9,2.2-1.1c0.3,0,0.5-0.1,0.8-0.1
			c0.8,0,1.4,0.2,2.1,0.5c0.6,0.3,1,0.8,1.3,1.4l0,0.1l0.1,0.2c0.1,0.1,0,0.2-0.1,0.3l-5,1.2c-0.1,0-0.2,0.1-0.2,0.1
			c0,0,0,0.1,0.1,0.3c0.1,0.2,0.3,0.5,0.6,0.8c0.6,0.5,1.3,0.8,2.1,0.8c0.7,0,1.3-0.2,1.8-0.6l0.2-0.1l0.4,0.5
			c-0.2,0.2-0.6,0.4-1.1,0.5c-0.8,0.2-1.5,0.3-2,0.3C92.4,358,91.4,357.7,90.7,357.1 M91.3,353.5c0,0.2-0.1,0.3-0.1,0.4v0.3
			c0,0.4,0.1,0.6,0.2,0.6c0,0,0.1,0,0.1,0l3.3-0.8c0.1,0,0.2-0.1,0.2-0.1c0,0,0-0.1-0.1-0.4l0-0.1c-0.1-0.2-0.3-0.5-0.6-0.7
			c-0.4-0.3-0.8-0.5-1.3-0.5C92.1,352.3,91.5,352.7,91.3,353.5"/>
		<path class="st6" d="M98.4,357.7V357c0.2,0.1,0.5,0.1,0.6,0.1c0.9,0,1.2-0.4,1.2-1.1v-3.9h1v4.2c0,0.8-0.5,1.6-2,1.6
			C98.9,357.8,98.6,357.8,98.4,357.7"/>
		<polyline class="st6" points="110.4,357.7 110.4,352.8 110.4,352.8 108,357.7 107,357.7 104.6,352.8 104.6,352.8 104.6,357.7 
			103.6,357.7 103.6,352.1 105.3,352.1 107.5,356.8 109.7,352.1 111.4,352.1 111.4,357.7 110.4,357.7 		"/>
		<path class="st6" d="M119,357.7l-0.7-1.4h-3.5l-0.7,1.4H113l3.1-5.7h1.1l3,5.7H119 M115.1,355.6h2.8l-1.4-2.8L115.1,355.6"/>
		<polyline class="st6" points="125.9,357.7 122.7,353.1 122.7,353.1 122.7,357.7 121.7,357.7 121.7,352.1 123,352.1 126.2,356.6 
			126.2,356.6 126.2,352.1 127.2,352.1 127.2,357.7 125.9,357.7 		"/>
		<polyline class="st6" points="96.1,356.3 96.8,355.9 97.5,356.8 96.8,357.2 96.1,356.3 		"/>
		<g>
			<path class="st6" d="M90.4,337.2h0.7l1.5,3l1.4-3h0.7v4.6H94v-2.9h0l-1.1,2.2h-0.7l-1.1-2.2h0v2.9h-0.8V337.2z"/>
			<path class="st6" d="M96,337.2h0.8v4.6H96V337.2z"/>
			<path class="st6" d="M99.5,340.1l-1.1,1.7h-0.9l1.6-2.4l-1.5-2.3h0.9l1,1.6l1-1.6h0.9l-1.5,2.3l1.6,2.4h-0.9L99.5,340.1z"/>
			<path class="st6" d="M107.5,340.5c-0.2,0.9-0.9,1.3-1.8,1.3c-0.8,0-1.4-0.4-1.6-0.8c-0.2-0.3-0.2-0.4-0.2-1.5s0.1-1.3,0.2-1.5
				c0.2-0.4,0.8-0.8,1.6-0.8c1,0,1.6,0.6,1.8,1.4h-0.8c-0.1-0.4-0.5-0.7-1-0.7c-0.4,0-0.6,0.2-0.8,0.3c-0.2,0.2-0.3,0.4-0.3,1.3
				s0.1,1.1,0.3,1.3c0.2,0.2,0.4,0.3,0.8,0.3c0.4,0,0.8-0.2,1-0.6H107.5z"/>
			<path class="st6" d="M107.7,337.2h0.8l1.2,3.5h0l1.2-3.5h0.8l-1.7,4.6h-0.6L107.7,337.2z"/>
		</g>
	</g>
	<g>
		<path class="st6" d="M87.8,11.3v1.8h-4v2.2h4v1.8h-4v4h-2.3v-9.9H87.8z"/>
		<path class="st6" d="M95.8,11.9v1.9c-1.2-0.6-2.2-0.9-2.9-0.9c-0.4,0-0.7,0.1-1,0.2c-0.2,0.1-0.4,0.3-0.4,0.6
			c0,0.2,0.1,0.4,0.3,0.5s0.6,0.4,1.3,0.7c0.7,0.3,1.2,0.5,1.6,0.7s0.8,0.6,1,1c0.3,0.4,0.4,0.9,0.4,1.6c0,0.9-0.3,1.6-1,2.2
			c-0.6,0.5-1.5,0.8-2.5,0.8c-1.1,0-2.2-0.3-3.3-1v-2.1c0.6,0.4,1.1,0.8,1.6,1c0.5,0.2,1,0.3,1.5,0.3c0.9,0,1.3-0.3,1.3-0.9
			c0-0.2-0.1-0.4-0.3-0.6c-0.2-0.2-0.6-0.4-1.3-0.7c-0.7-0.3-1.2-0.5-1.6-0.7c-0.4-0.2-0.7-0.5-1-1c-0.3-0.4-0.4-1-0.4-1.6
			c0-0.8,0.3-1.5,0.9-2.1c0.6-0.5,1.5-0.8,2.5-0.8C93.7,11.2,94.7,11.4,95.8,11.9z"/>
		<path class="st6" d="M106.7,11.3v9.9h-2.3v-4h-4.5v4h-2.3v-9.9h2.3v4h4.5v-4H106.7z"/>
		<path class="st6" d="M111.7,16.8v1.9h-3.5v-1.9H111.7z"/>
		<path class="st6" d="M116,11.1h1.7v10.1h-1.9v-7.8l-1.6,1.4l-0.9-1.3L116,11.1z"/>
	</g>
	<g>
		<path class="st6" d="M61.9,4h3.9v0.8h-3v1.6h2.5V7h-2.5v2.3h-0.9V4z"/>
		<path class="st6" d="M66.5,4h2.4c0.5,0,0.9,0.1,1.2,0.3c0.3,0.3,0.6,0.7,0.6,1.1c0,0.7-0.4,1.2-1.2,1.5L71,9.3h-1.1L68.6,7h-1.2
			v2.3h-0.9V4z M67.4,6.3h1.4c0.7,0,1-0.4,1-0.8c0-0.3-0.1-0.5-0.3-0.6c-0.2-0.1-0.4-0.2-0.7-0.2h-1.4V6.3z"/>
		<path class="st6" d="M71.7,4h3.9v0.8h-3v1.5h2.5v0.7h-2.5v1.5h3v0.8h-3.9V4z"/>
		<path class="st6" d="M79.9,8.8c-0.4,0.3-0.8,0.5-1.4,0.5c-1,0-1.6-0.5-1.9-0.9c-0.2-0.3-0.3-0.5-0.3-1.7s0.1-1.4,0.3-1.7
			c0.3-0.5,0.9-0.9,1.9-0.9s1.6,0.5,1.9,0.9c0.2,0.3,0.3,0.5,0.3,1.7c0,1.1-0.1,1.4-0.2,1.7l0.8,0.6l-0.5,0.5L79.9,8.8z M78.4,7.8
			l0.5-0.5l0.7,0.5c0.1-0.2,0.1-0.5,0.1-1.1c0-1.1-0.1-1.2-0.3-1.5c-0.2-0.2-0.5-0.4-0.9-0.4c-0.4,0-0.8,0.2-0.9,0.4
			c-0.2,0.3-0.3,0.4-0.3,1.5c0,1.1,0.1,1.2,0.3,1.5c0.2,0.2,0.5,0.4,0.9,0.4c0.3,0,0.5-0.1,0.7-0.2L78.4,7.8z"/>
		<path class="st6" d="M81.5,4h0.9v3.4c0,0.7,0.5,1.1,1.2,1.1s1.2-0.4,1.2-1.1V4h0.9v3.5c0,1.1-1,1.8-2.2,1.8
			c-1.2,0-2.2-0.7-2.2-1.8V4z"/>
		<path class="st6" d="M87,4h3.9v0.8h-3v1.5h2.5v0.7h-2.5v1.5h3v0.8H87V4z"/>
		<path class="st6" d="M91.8,4h0.9l2.8,3.8h0V4h0.9v5.3h-0.9l-2.8-3.8h0v3.8h-0.9V4z"/>
		<path class="st6" d="M101.7,7.8c-0.2,1-1.1,1.5-2.1,1.5c-1,0-1.6-0.5-1.9-0.9c-0.2-0.3-0.3-0.5-0.3-1.7s0.1-1.4,0.3-1.7
			c0.3-0.5,0.9-0.9,1.9-0.9c1.2,0,1.9,0.7,2.1,1.6h-1c-0.1-0.4-0.6-0.8-1.2-0.8c-0.4,0-0.8,0.2-0.9,0.4c-0.2,0.3-0.3,0.4-0.3,1.5
			c0,1.1,0.1,1.2,0.3,1.5c0.2,0.2,0.5,0.4,0.9,0.4c0.5,0,0.9-0.2,1.2-0.7H101.7z"/>
		<path class="st6" d="M103.4,7.1L101.6,4h1l1.3,2.3l1.3-2.3h1l-1.8,3.1v2.2h-0.9V7.1z"/>
		<path class="st6" d="M108.7,8c0.5,0.3,1.1,0.5,1.7,0.5c0.8,0,1.2-0.3,1.2-0.7c0-0.4-0.2-0.7-0.8-0.7c-0.3,0-0.5-0.1-0.8-0.1
			c-1.1-0.1-1.6-0.7-1.6-1.5c0-0.9,0.7-1.5,2-1.5c0.8,0,1.4,0.2,2,0.5l-0.5,0.7c-0.4-0.2-1-0.4-1.5-0.4c-0.6,0-1,0.3-1,0.8
			c0,0.3,0.2,0.6,0.9,0.7c0.2,0,0.4,0.1,0.7,0.1c1.1,0.1,1.7,0.8,1.7,1.5c0,1-0.8,1.5-2.1,1.5c-0.9,0-1.7-0.2-2.3-0.7L108.7,8z"/>
		<path class="st6" d="M116.9,6.9h-2.4v2.3h-0.9V4h0.9v2.3h2.4V4h0.9v5.3h-0.9V6.9z"/>
		<path class="st6" d="M119.1,4h0.9v5.3h-0.9V4z"/>
		<path class="st6" d="M121.3,4h3.9v0.8h-3v1.6h2.5V7h-2.5v2.3h-0.9V4z"/>
		<path class="st6" d="M126.9,4.7h-1.7V4h4.3v0.7h-1.7v4.6h-0.9V4.7z"/>
		<path class="st6" d="M130.2,4h3.9v0.8h-3v1.5h2.5v0.7h-2.5v1.5h3v0.8h-3.9V4z"/>
		<path class="st6" d="M134.9,4h2.4c0.5,0,0.9,0.1,1.2,0.3c0.3,0.3,0.6,0.7,0.6,1.1c0,0.7-0.4,1.2-1.2,1.5l1.4,2.3h-1.1L137,7h-1.2
			v2.3h-0.9V4z M135.8,6.3h1.4c0.7,0,1-0.4,1-0.8c0-0.3-0.1-0.5-0.3-0.6c-0.2-0.1-0.4-0.2-0.7-0.2h-1.4V6.3z"/>
	</g>
</g>
<g>
	<path class="st7" d="M191.9,60.5L191.9,60.5c-0.3-12.5-10.6-22.5-23.2-22.2c-12.5,0.3-22.4,10.6-22.2,23.2l0,0"/>
	<path class="st7" d="M146.5,61.5L146.5,61.5c0.3,12.5,10.6,22.5,23.2,22.2c12.5-0.3,22.5-10.6,22.2-23.2l0,0"/>
</g>
<g>
	<path class="st7" d="M181.9,171.8L181.9,171.8c-10.4-7-24.5-4.3-31.5,6c-7,10.4-4.3,24.5,6,31.5l0,0"/>
	<path class="st7" d="M156.4,209.4L156.4,209.4c10.4,7,24.5,4.3,31.5-6c7-10.4,4.3-24.5-6-31.5l0,0"/>
</g>
<polyline class="st10" points="106.6,115.9 106.6,136.1 95,136.1 95,115.9 106.6,115.9 "/>
<linearGradient id="SVGID_1_" gradientUnits="userSpaceOnUse" x1="-159.5566" y1="32.9254" x2="-159.5566" y2="22.1228" gradientTransform="matrix(-1 0 0 -1 -58.8437 158.2178)">
	<stop  offset="0" style="stop-color:#FFFFFF"/>
	<stop  offset="9.082241e-02" style="stop-color:#F5F5F6"/>
	<stop  offset="0.2205" style="stop-color:#DAD8DB"/>
	<stop  offset="0.3735" style="stop-color:#B0AEB2"/>
	<stop  offset="0.5444" style="stop-color:#7D7B80"/>
	<stop  offset="0.7301" style="stop-color:#46454B"/>
	<stop  offset="0.9254" style="stop-color:#121317"/>
	<stop  offset="1" style="stop-color:#010202"/>
</linearGradient>
<rect x="96.5" y="127.3" class="st11" width="8.5" height="6.8"/>
<polyline class="st10" points="95,71.3 95,51.1 106.6,51.1 106.6,71.3 95,71.3 "/>
<linearGradient id="SVGID_2_" gradientUnits="userSpaceOnUse" x1="267.042" y1="-132.7874" x2="267.042" y2="-143.5901" gradientTransform="matrix(1 0 0 1 -166.1563 194.6914)">
	<stop  offset="0" style="stop-color:#FFFFFF"/>
	<stop  offset="9.082241e-02" style="stop-color:#F5F5F6"/>
	<stop  offset="0.2205" style="stop-color:#DAD8DB"/>
	<stop  offset="0.3735" style="stop-color:#B0AEB2"/>
	<stop  offset="0.5444" style="stop-color:#7D7B80"/>
	<stop  offset="0.7301" style="stop-color:#46454B"/>
	<stop  offset="0.9254" style="stop-color:#121317"/>
	<stop  offset="1" style="stop-color:#010202"/>
</linearGradient>
<rect x="96.6" y="53.1" class="st12" width="8.5" height="6.8"/>
<g>
	<linearGradient id="SVGID_3_" gradientUnits="userSpaceOnUse" x1="172.7891" y1="329.4539" x2="172.7891" y2="311.3438">
		<stop  offset="0" style="stop-color:#7E7667"/>
		<stop  offset="1" style="stop-color:#F7E9E4"/>
	</linearGradient>
	<circle class="st13" cx="172.8" cy="320.4" r="9.1"/>
	<g>
		<linearGradient id="SVGID_4_" gradientUnits="userSpaceOnUse" x1="172.7891" y1="333.4165" x2="172.7891" y2="307.3813">
			<stop  offset="0" style="stop-color:#7E7667"/>
			<stop  offset="1" style="stop-color:#F7E9E4"/>
		</linearGradient>
		<path class="st14" d="M172.8,333.4c-7.2,0-13-5.8-13-13s5.8-13,13-13s13,5.8,13,13S180,333.4,172.8,333.4z M172.8,309.9
			c-5.8,0-10.5,4.7-10.5,10.5s4.7,10.5,10.5,10.5s10.5-4.7,10.5-10.5S178.6,309.9,172.8,309.9z"/>
		<path class="st15" d="M172.8,307.6c7.1,0,12.8,5.7,12.8,12.8c0,7.1-5.7,12.8-12.8,12.8s-12.8-5.7-12.8-12.8
			C160,313.3,165.7,307.6,172.8,307.6 M172.8,331.1c5.9,0,10.7-4.8,10.7-10.7c0-5.9-4.8-10.7-10.7-10.7c-5.9,0-10.7,4.8-10.7,10.7
			C162.1,326.3,166.9,331.1,172.8,331.1 M172.8,307.1c-7.3,0-13.3,6-13.3,13.3s6,13.3,13.3,13.3s13.3-6,13.3-13.3
			S180.1,307.1,172.8,307.1L172.8,307.1z M172.8,330.6c-5.6,0-10.2-4.6-10.2-10.2s4.6-10.2,10.2-10.2s10.2,4.6,10.2,10.2
			S178.4,330.6,172.8,330.6L172.8,330.6z"/>
	</g>
	<linearGradient id="SVGID_5_" gradientUnits="userSpaceOnUse" x1="162.0855" y1="320.3989" x2="183.4927" y2="320.3989">
		<stop  offset="0" style="stop-color:#7E7667"/>
		<stop  offset="1" style="stop-color:#F7E9E4"/>
	</linearGradient>
	<path class="st16" d="M172.8,309.7c-5.9,0-10.7,4.8-10.7,10.7c0,5.9,4.8,10.7,10.7,10.7c5.9,0,10.7-4.8,10.7-10.7
		C183.5,314.5,178.7,309.7,172.8,309.7z M172.8,329.1c-4.8,0-8.7-3.9-8.7-8.7c0-4.8,3.9-8.7,8.7-8.7c4.8,0,8.7,3.9,8.7,8.7
		C181.5,325.2,177.6,329.1,172.8,329.1z"/>
	<g>
		<path class="st17" d="M172.8,326.4c3.3,0,6-2.7,6-6h-12.1C166.8,323.7,169.5,326.4,172.8,326.4z"/>
		<path class="st18" d="M172.8,314.4c-3.3,0-6,2.7-6,6h12.1C178.8,317.1,176.1,314.4,172.8,314.4z"/>
	</g>
	<circle class="st19" cx="172.8" cy="320.4" r="6"/>
</g>
<g>
	<linearGradient id="SVGID_6_" gradientUnits="userSpaceOnUse" x1="136.789" y1="329.4539" x2="136.789" y2="311.3438">
		<stop  offset="0" style="stop-color:#7E7667"/>
		<stop  offset="1" style="stop-color:#F7E9E4"/>
	</linearGradient>
	<circle class="st20" cx="136.8" cy="320.4" r="9.1"/>
	<g>
		<linearGradient id="SVGID_7_" gradientUnits="userSpaceOnUse" x1="136.7891" y1="333.4165" x2="136.7891" y2="307.3813">
			<stop  offset="0" style="stop-color:#7E7667"/>
			<stop  offset="1" style="stop-color:#F7E9E4"/>
		</linearGradient>
		<path class="st21" d="M136.8,333.4c-7.2,0-13-5.8-13-13s5.8-13,13-13s13,5.8,13,13S144,333.4,136.8,333.4z M136.8,309.9
			c-5.8,0-10.5,4.7-10.5,10.5s4.7,10.5,10.5,10.5c5.8,0,10.5-4.7,10.5-10.5S142.6,309.9,136.8,309.9z"/>
		<path class="st15" d="M136.8,307.6c7.1,0,12.8,5.7,12.8,12.8c0,7.1-5.7,12.8-12.8,12.8s-12.8-5.7-12.8-12.8
			C124,313.3,129.7,307.6,136.8,307.6 M136.8,331.1c5.9,0,10.7-4.8,10.7-10.7c0-5.9-4.8-10.7-10.7-10.7c-5.9,0-10.7,4.8-10.7,10.7
			C126.1,326.3,130.9,331.1,136.8,331.1 M136.8,307.1c-7.3,0-13.3,6-13.3,13.3s6,13.3,13.3,13.3s13.3-6,13.3-13.3
			S144.1,307.1,136.8,307.1L136.8,307.1z M136.8,330.6c-5.6,0-10.2-4.6-10.2-10.2s4.6-10.2,10.2-10.2s10.2,4.6,10.2,10.2
			S142.4,330.6,136.8,330.6L136.8,330.6z"/>
	</g>
	<linearGradient id="SVGID_8_" gradientUnits="userSpaceOnUse" x1="126.0854" y1="320.3989" x2="147.4926" y2="320.3989">
		<stop  offset="0" style="stop-color:#7E7667"/>
		<stop  offset="1" style="stop-color:#F7E9E4"/>
	</linearGradient>
	<path class="st22" d="M136.8,309.7c-5.9,0-10.7,4.8-10.7,10.7c0,5.9,4.8,10.7,10.7,10.7c5.9,0,10.7-4.8,10.7-10.7
		C147.5,314.5,142.7,309.7,136.8,309.7z M136.8,329.1c-4.8,0-8.7-3.9-8.7-8.7c0-4.8,3.9-8.7,8.7-8.7c4.8,0,8.7,3.9,8.7,8.7
		C145.5,325.2,141.6,329.1,136.8,329.1z"/>
	<g>
		<path class="st17" d="M136.8,326.4c3.3,0,6-2.7,6-6h-12.1C130.8,323.7,133.5,326.4,136.8,326.4z"/>
		<path class="st18" d="M136.8,314.4c-3.3,0-6,2.7-6,6h12.1C142.8,317.1,140.1,314.4,136.8,314.4z"/>
	</g>
	<circle class="st19" cx="136.8" cy="320.4" r="6"/>
</g>
<g>
	<linearGradient id="SVGID_9_" gradientUnits="userSpaceOnUse" x1="100.7889" y1="329.4539" x2="100.7889" y2="311.3438">
		<stop  offset="0" style="stop-color:#7E7667"/>
		<stop  offset="1" style="stop-color:#F7E9E4"/>
	</linearGradient>
	<circle class="st23" cx="100.8" cy="320.4" r="9.1"/>
	<g>
		<linearGradient id="SVGID_10_" gradientUnits="userSpaceOnUse" x1="100.7891" y1="333.4165" x2="100.7891" y2="307.3813">
			<stop  offset="0" style="stop-color:#7E7667"/>
			<stop  offset="1" style="stop-color:#F7E9E4"/>
		</linearGradient>
		<path class="st24" d="M100.8,333.4c-7.2,0-13-5.8-13-13s5.8-13,13-13s13,5.8,13,13S108,333.4,100.8,333.4z M100.8,309.9
			c-5.8,0-10.5,4.7-10.5,10.5s4.7,10.5,10.5,10.5c5.8,0,10.5-4.7,10.5-10.5S106.6,309.9,100.8,309.9z"/>
		<path class="st15" d="M100.8,307.6c7.1,0,12.8,5.7,12.8,12.8c0,7.1-5.7,12.8-12.8,12.8S88,327.5,88,320.4
			C88,313.3,93.7,307.6,100.8,307.6 M100.8,331.1c5.9,0,10.7-4.8,10.7-10.7c0-5.9-4.8-10.7-10.7-10.7c-5.9,0-10.7,4.8-10.7,10.7
			C90.1,326.3,94.9,331.1,100.8,331.1 M100.8,307.1c-7.3,0-13.3,6-13.3,13.3s6,13.3,13.3,13.3s13.3-6,13.3-13.3
			S108.1,307.1,100.8,307.1L100.8,307.1z M100.8,330.6c-5.6,0-10.2-4.6-10.2-10.2s4.6-10.2,10.2-10.2s10.2,4.6,10.2,10.2
			S106.4,330.6,100.8,330.6L100.8,330.6z"/>
	</g>
	<linearGradient id="SVGID_11_" gradientUnits="userSpaceOnUse" x1="90.0853" y1="320.3989" x2="111.4925" y2="320.3989">
		<stop  offset="0" style="stop-color:#7E7667"/>
		<stop  offset="1" style="stop-color:#F7E9E4"/>
	</linearGradient>
	<path class="st25" d="M100.8,309.7c-5.9,0-10.7,4.8-10.7,10.7c0,5.9,4.8,10.7,10.7,10.7c5.9,0,10.7-4.8,10.7-10.7
		C111.5,314.5,106.7,309.7,100.8,309.7z M100.8,329.1c-4.8,0-8.7-3.9-8.7-8.7c0-4.8,3.9-8.7,8.7-8.7c4.8,0,8.7,3.9,8.7,8.7
		C109.5,325.2,105.6,329.1,100.8,329.1z"/>
	<g>
		<path class="st17" d="M100.8,326.4c3.3,0,6-2.7,6-6H94.8C94.8,323.7,97.5,326.4,100.8,326.4z"/>
		<path class="st18" d="M100.8,314.4c-3.3,0-6,2.7-6,6h12.1C106.8,317.1,104.1,314.4,100.8,314.4z"/>
	</g>
	<circle class="st19" cx="100.8" cy="320.4" r="6"/>
</g>
<g>
	<linearGradient id="SVGID_12_" gradientUnits="userSpaceOnUse" x1="64.7888" y1="329.4539" x2="64.7888" y2="311.3438">
		<stop  offset="0" style="stop-color:#7E7667"/>
		<stop  offset="1" style="stop-color:#F7E9E4"/>
	</linearGradient>
	<circle class="st26" cx="64.8" cy="320.4" r="9.1"/>
	<g>
		<linearGradient id="SVGID_13_" gradientUnits="userSpaceOnUse" x1="64.7886" y1="333.4165" x2="64.7886" y2="307.3813">
			<stop  offset="0" style="stop-color:#7E7667"/>
			<stop  offset="1" style="stop-color:#F7E9E4"/>
		</linearGradient>
		<path class="st27" d="M64.8,333.4c-7.2,0-13-5.8-13-13s5.8-13,13-13s13,5.8,13,13S72,333.4,64.8,333.4z M64.8,309.9
			c-5.8,0-10.5,4.7-10.5,10.5s4.7,10.5,10.5,10.5s10.5-4.7,10.5-10.5S70.6,309.9,64.8,309.9z"/>
		<path class="st15" d="M64.8,307.6c7.1,0,12.8,5.7,12.8,12.8c0,7.1-5.7,12.8-12.8,12.8S52,327.5,52,320.4
			C52,313.3,57.7,307.6,64.8,307.6 M64.8,331.1c5.9,0,10.7-4.8,10.7-10.7c0-5.9-4.8-10.7-10.7-10.7c-5.9,0-10.7,4.8-10.7,10.7
			C54.1,326.3,58.9,331.1,64.8,331.1 M64.8,307.1c-7.3,0-13.3,6-13.3,13.3s6,13.3,13.3,13.3s13.3-6,13.3-13.3S72.1,307.1,64.8,307.1
			L64.8,307.1z M64.8,330.6c-5.6,0-10.2-4.6-10.2-10.2s4.6-10.2,10.2-10.2S75,314.8,75,320.4S70.4,330.6,64.8,330.6L64.8,330.6z"/>
	</g>
	<linearGradient id="SVGID_14_" gradientUnits="userSpaceOnUse" x1="54.0852" y1="320.3989" x2="75.4923" y2="320.3989">
		<stop  offset="0" style="stop-color:#7E7667"/>
		<stop  offset="1" style="stop-color:#F7E9E4"/>
	</linearGradient>
	<path class="st28" d="M64.8,309.7c-5.9,0-10.7,4.8-10.7,10.7c0,5.9,4.8,10.7,10.7,10.7c5.9,0,10.7-4.8,10.7-10.7
		C75.5,314.5,70.7,309.7,64.8,309.7z M64.8,329.1c-4.8,0-8.7-3.9-8.7-8.7c0-4.8,3.9-8.7,8.7-8.7c4.8,0,8.7,3.9,8.7,8.7
		C73.5,325.2,69.6,329.1,64.8,329.1z"/>
	<g>
		<path class="st17" d="M64.8,326.4c3.3,0,6-2.7,6-6H58.8C58.8,323.7,61.5,326.4,64.8,326.4z"/>
		<path class="st18" d="M64.8,314.4c-3.3,0-6,2.7-6,6h12.1C70.8,317.1,68.1,314.4,64.8,314.4z"/>
	</g>
	<circle class="st19" cx="64.8" cy="320.4" r="6"/>
</g>
<g>
	<g>
		<linearGradient id="SVGID_15_" gradientUnits="userSpaceOnUse" x1="136.789" y1="270.243" x2="136.789" y2="252.1329">
			<stop  offset="0" style="stop-color:#7E7667"/>
			<stop  offset="1" style="stop-color:#F7E9E4"/>
		</linearGradient>
		<circle class="st29" cx="136.8" cy="261.2" r="9.1"/>
		<g>
			<linearGradient id="SVGID_16_" gradientUnits="userSpaceOnUse" x1="136.7891" y1="274.2056" x2="136.7891" y2="248.1704">
				<stop  offset="0" style="stop-color:#7E7667"/>
				<stop  offset="1" style="stop-color:#F7E9E4"/>
			</linearGradient>
			<path class="st30" d="M136.8,274.2c-7.2,0-13-5.8-13-13s5.8-13,13-13s13,5.8,13,13S144,274.2,136.8,274.2z M136.8,250.7
				c-5.8,0-10.5,4.7-10.5,10.5s4.7,10.5,10.5,10.5c5.8,0,10.5-4.7,10.5-10.5S142.6,250.7,136.8,250.7z"/>
			<path class="st15" d="M136.8,248.4c7.1,0,12.8,5.7,12.8,12.8c0,7.1-5.7,12.8-12.8,12.8s-12.8-5.7-12.8-12.8
				C124,254.1,129.7,248.4,136.8,248.4 M136.8,271.9c5.9,0,10.7-4.8,10.7-10.7c0-5.9-4.8-10.7-10.7-10.7c-5.9,0-10.7,4.8-10.7,10.7
				C126.1,267.1,130.9,271.9,136.8,271.9 M136.8,247.9c-7.3,0-13.3,6-13.3,13.3s6,13.3,13.3,13.3s13.3-6,13.3-13.3
				S144.1,247.9,136.8,247.9L136.8,247.9z M136.8,271.4c-5.6,0-10.2-4.6-10.2-10.2c0-5.6,4.6-10.2,10.2-10.2s10.2,4.6,10.2,10.2
				C147,266.8,142.4,271.4,136.8,271.4L136.8,271.4z"/>
		</g>
		<linearGradient id="SVGID_17_" gradientUnits="userSpaceOnUse" x1="126.0854" y1="261.188" x2="147.4926" y2="261.188">
			<stop  offset="0" style="stop-color:#7E7667"/>
			<stop  offset="1" style="stop-color:#F7E9E4"/>
		</linearGradient>
		<path class="st31" d="M136.8,250.5c-5.9,0-10.7,4.8-10.7,10.7c0,5.9,4.8,10.7,10.7,10.7c5.9,0,10.7-4.8,10.7-10.7
			C147.5,255.3,142.7,250.5,136.8,250.5z M136.8,269.9c-4.8,0-8.7-3.9-8.7-8.7c0-4.8,3.9-8.7,8.7-8.7c4.8,0,8.7,3.9,8.7,8.7
			C145.5,266,141.6,269.9,136.8,269.9z"/>
		<g>
			<path class="st17" d="M136.8,267.2c3.3,0,6-2.7,6-6h-12.1C130.8,264.5,133.5,267.2,136.8,267.2z"/>
			<path class="st18" d="M136.8,255.2c-3.3,0-6,2.7-6,6h12.1C142.8,257.9,140.1,255.2,136.8,255.2z"/>
		</g>
		<circle class="st19" cx="136.8" cy="261.2" r="6"/>
	</g>
	<g>
		<linearGradient id="SVGID_18_" gradientUnits="userSpaceOnUse" x1="100.7889" y1="270.243" x2="100.7889" y2="252.1329">
			<stop  offset="0" style="stop-color:#7E7667"/>
			<stop  offset="1" style="stop-color:#F7E9E4"/>
		</linearGradient>
		<circle class="st32" cx="100.8" cy="261.2" r="9.1"/>
		<g>
			<linearGradient id="SVGID_19_" gradientUnits="userSpaceOnUse" x1="100.7891" y1="274.2056" x2="100.7891" y2="248.1704">
				<stop  offset="0" style="stop-color:#7E7667"/>
				<stop  offset="1" style="stop-color:#F7E9E4"/>
			</linearGradient>
			<path class="st33" d="M100.8,274.2c-7.2,0-13-5.8-13-13s5.8-13,13-13s13,5.8,13,13S108,274.2,100.8,274.2z M100.8,250.7
				c-5.8,0-10.5,4.7-10.5,10.5s4.7,10.5,10.5,10.5c5.8,0,10.5-4.7,10.5-10.5S106.6,250.7,100.8,250.7z"/>
			<path class="st15" d="M100.8,248.4c7.1,0,12.8,5.7,12.8,12.8c0,7.1-5.7,12.8-12.8,12.8S88,268.2,88,261.2
				C88,254.1,93.7,248.4,100.8,248.4 M100.8,271.9c5.9,0,10.7-4.8,10.7-10.7c0-5.9-4.8-10.7-10.7-10.7c-5.9,0-10.7,4.8-10.7,10.7
				C90.1,267.1,94.9,271.9,100.8,271.9 M100.8,247.9c-7.3,0-13.3,6-13.3,13.3s6,13.3,13.3,13.3s13.3-6,13.3-13.3
				S108.1,247.9,100.8,247.9L100.8,247.9z M100.8,271.4c-5.6,0-10.2-4.6-10.2-10.2c0-5.6,4.6-10.2,10.2-10.2s10.2,4.6,10.2,10.2
				C111,266.8,106.4,271.4,100.8,271.4L100.8,271.4z"/>
		</g>
		<linearGradient id="SVGID_20_" gradientUnits="userSpaceOnUse" x1="90.0853" y1="261.188" x2="111.4925" y2="261.188">
			<stop  offset="0" style="stop-color:#7E7667"/>
			<stop  offset="1" style="stop-color:#F7E9E4"/>
		</linearGradient>
		<path class="st34" d="M100.8,250.5c-5.9,0-10.7,4.8-10.7,10.7c0,5.9,4.8,10.7,10.7,10.7c5.9,0,10.7-4.8,10.7-10.7
			C111.5,255.3,106.7,250.5,100.8,250.5z M100.8,269.9c-4.8,0-8.7-3.9-8.7-8.7c0-4.8,3.9-8.7,8.7-8.7c4.8,0,8.7,3.9,8.7,8.7
			C109.5,266,105.6,269.9,100.8,269.9z"/>
		<g>
			<path class="st17" d="M100.8,267.2c3.3,0,6-2.7,6-6H94.8C94.8,264.5,97.5,267.2,100.8,267.2z"/>
			<path class="st18" d="M100.8,255.2c-3.3,0-6,2.7-6,6h12.1C106.8,257.9,104.1,255.2,100.8,255.2z"/>
		</g>
		<circle class="st19" cx="100.8" cy="261.2" r="6"/>
	</g>
	<g>
		<linearGradient id="SVGID_21_" gradientUnits="userSpaceOnUse" x1="64.7888" y1="270.243" x2="64.7888" y2="252.1329">
			<stop  offset="0" style="stop-color:#7E7667"/>
			<stop  offset="1" style="stop-color:#F7E9E4"/>
		</linearGradient>
		<circle class="st35" cx="64.8" cy="261.2" r="9.1"/>
		<g>
			<linearGradient id="SVGID_22_" gradientUnits="userSpaceOnUse" x1="64.7886" y1="274.2056" x2="64.7886" y2="248.1704">
				<stop  offset="0" style="stop-color:#7E7667"/>
				<stop  offset="1" style="stop-color:#F7E9E4"/>
			</linearGradient>
			<path class="st36" d="M64.8,274.2c-7.2,0-13-5.8-13-13s5.8-13,13-13s13,5.8,13,13S72,274.2,64.8,274.2z M64.8,250.7
				c-5.8,0-10.5,4.7-10.5,10.5s4.7,10.5,10.5,10.5s10.5-4.7,10.5-10.5S70.6,250.7,64.8,250.7z"/>
			<path class="st15" d="M64.8,248.4c7.1,0,12.8,5.7,12.8,12.8c0,7.1-5.7,12.8-12.8,12.8S52,268.2,52,261.2
				C52,254.1,57.7,248.4,64.8,248.4 M64.8,271.9c5.9,0,10.7-4.8,10.7-10.7c0-5.9-4.8-10.7-10.7-10.7c-5.9,0-10.7,4.8-10.7,10.7
				C54.1,267.1,58.9,271.9,64.8,271.9 M64.8,247.9c-7.3,0-13.3,6-13.3,13.3s6,13.3,13.3,13.3s13.3-6,13.3-13.3
				S72.1,247.9,64.8,247.9L64.8,247.9z M64.8,271.4c-5.6,0-10.2-4.6-10.2-10.2c0-5.6,4.6-10.2,10.2-10.2S75,255.6,75,261.2
				C75,266.8,70.4,271.4,64.8,271.4L64.8,271.4z"/>
		</g>
		<linearGradient id="SVGID_23_" gradientUnits="userSpaceOnUse" x1="54.0852" y1="261.188" x2="75.4923" y2="261.188">
			<stop  offset="0" style="stop-color:#7E7667"/>
			<stop  offset="1" style="stop-color:#F7E9E4"/>
		</linearGradient>
		<path class="st37" d="M64.8,250.5c-5.9,0-10.7,4.8-10.7,10.7c0,5.9,4.8,10.7,10.7,10.7c5.9,0,10.7-4.8,10.7-10.7
			C75.5,255.3,70.7,250.5,64.8,250.5z M64.8,269.9c-4.8,0-8.7-3.9-8.7-8.7c0-4.8,3.9-8.7,8.7-8.7c4.8,0,8.7,3.9,8.7,8.7
			C73.5,266,69.6,269.9,64.8,269.9z"/>
		<g>
			<path class="st17" d="M64.8,267.2c3.3,0,6-2.7,6-6H58.8C58.8,264.5,61.5,267.2,64.8,267.2z"/>
			<path class="st18" d="M64.8,255.2c-3.3,0-6,2.7-6,6h12.1C70.8,257.9,68.1,255.2,64.8,255.2z"/>
		</g>
		<circle class="st19" cx="64.8" cy="261.2" r="6"/>
	</g>
</g>
<g>
	<linearGradient id="SVGID_24_" gradientUnits="userSpaceOnUse" x1="28.7887" y1="329.4539" x2="28.7887" y2="311.3438">
		<stop  offset="0" style="stop-color:#7E7667"/>
		<stop  offset="1" style="stop-color:#F7E9E4"/>
	</linearGradient>
	<circle class="st38" cx="28.8" cy="320.4" r="9.1"/>
	<g>
		<linearGradient id="SVGID_25_" gradientUnits="userSpaceOnUse" x1="28.7886" y1="333.4165" x2="28.7886" y2="307.3813">
			<stop  offset="0" style="stop-color:#7E7667"/>
			<stop  offset="1" style="stop-color:#F7E9E4"/>
		</linearGradient>
		<path class="st39" d="M28.8,333.4c-7.2,0-13-5.8-13-13s5.8-13,13-13s13,5.8,13,13S36,333.4,28.8,333.4z M28.8,309.9
			c-5.8,0-10.5,4.7-10.5,10.5s4.7,10.5,10.5,10.5s10.5-4.7,10.5-10.5S34.6,309.9,28.8,309.9z"/>
		<path class="st15" d="M28.8,307.6c7.1,0,12.8,5.7,12.8,12.8c0,7.1-5.7,12.8-12.8,12.8S16,327.5,16,320.4
			C16,313.3,21.7,307.6,28.8,307.6 M28.8,331.1c5.9,0,10.7-4.8,10.7-10.7c0-5.9-4.8-10.7-10.7-10.7c-5.9,0-10.7,4.8-10.7,10.7
			C18.1,326.3,22.9,331.1,28.8,331.1 M28.8,307.1c-7.3,0-13.3,6-13.3,13.3s6,13.3,13.3,13.3s13.3-6,13.3-13.3S36.1,307.1,28.8,307.1
			L28.8,307.1z M28.8,330.6c-5.6,0-10.2-4.6-10.2-10.2s4.6-10.2,10.2-10.2S39,314.8,39,320.4S34.4,330.6,28.8,330.6L28.8,330.6z"/>
	</g>
	<linearGradient id="SVGID_26_" gradientUnits="userSpaceOnUse" x1="18.0851" y1="320.3989" x2="39.4922" y2="320.3989">
		<stop  offset="0" style="stop-color:#7E7667"/>
		<stop  offset="1" style="stop-color:#F7E9E4"/>
	</linearGradient>
	<path class="st40" d="M28.8,309.7c-5.9,0-10.7,4.8-10.7,10.7c0,5.9,4.8,10.7,10.7,10.7c5.9,0,10.7-4.8,10.7-10.7
		C39.5,314.5,34.7,309.7,28.8,309.7z M28.8,329.1c-4.8,0-8.7-3.9-8.7-8.7c0-4.8,3.9-8.7,8.7-8.7c4.8,0,8.7,3.9,8.7,8.7
		C37.5,325.2,33.6,329.1,28.8,329.1z"/>
	<g>
		<path class="st17" d="M28.8,326.4c3.3,0,6-2.7,6-6H22.8C22.8,323.7,25.5,326.4,28.8,326.4z"/>
		<path class="st18" d="M28.8,314.4c-3.3,0-6,2.7-6,6h12.1C34.8,317.1,32.1,314.4,28.8,314.4z"/>
	</g>
	<circle class="st19" cx="28.8" cy="320.4" r="6"/>
</g>
<g>
	<g>
		<radialGradient id="SVGID_27_" cx="169.1318" cy="61.0066" r="22.6785" gradientUnits="userSpaceOnUse">
			<stop  offset="0.7195" style="stop-color:#000000"/>
			<stop  offset="1" style="stop-color:#0D0D0D"/>
		</radialGradient>
		<circle class="st41" cx="169.1" cy="61" r="22.7"/>
		<linearGradient id="SVGID_28_" gradientUnits="userSpaceOnUse" x1="146.4533" y1="61.0066" x2="191.8103" y2="61.0066">
			<stop  offset="0" style="stop-color:#000000"/>
			<stop  offset="1" style="stop-color:#FFFFFF"/>
		</linearGradient>
		<circle class="st42" cx="169.1" cy="61" r="22.7"/>
	</g>
	<g>
		
			<radialGradient id="SVGID_29_" cx="125.6319" cy="422.0887" r="16.261" gradientTransform="matrix(0.8522 0.5232 -0.5232 0.8522 282.9161 -364.3928)" gradientUnits="userSpaceOnUse">
			<stop  offset="0.9276" style="stop-color:#0D0D0D"/>
			<stop  offset="0.9684" style="stop-color:#1D1D1D"/>
			<stop  offset="1" style="stop-color:#242424"/>
		</radialGradient>
		<path class="st43" d="M181.4,70c0.2-0.3,0.5-0.7,0.7-1c0.5-0.9,1-1.8,1.3-2.7l0.9,0.5c1.5-3.9,1.5-8.2-0.2-12.2l-1,0.6
			c-0.6-1.3-1.3-2.6-2.2-3.7l1-0.6c-2.7-3.4-6.6-5.5-10.7-5.9l0,1.1c-1.4-0.2-2.9-0.2-4.3,0l0-1c-2,0.3-4,1-5.9,2.1
			c-0.1,0.1-0.2,0.1-0.2,0.2c-0.1,0-0.2,0.1-0.3,0.1c-1.9,1.1-3.4,2.5-4.6,4.2l0.9,0.5c-0.2,0.3-0.5,0.7-0.7,1
			c-0.5,0.9-1,1.8-1.3,2.7l-0.9-0.5c-1.5,3.9-1.5,8.2,0.2,12.2l1-0.6c0.6,1.3,1.3,2.6,2.2,3.7l-1,0.6c2.7,3.4,6.6,5.5,10.7,5.9
			l0-1.1c1.4,0.2,2.9,0.2,4.3,0l0,1c2-0.3,4-1,5.9-2.1c0.1-0.1,0.2-0.1,0.2-0.2c0.1,0,0.2-0.1,0.3-0.1c1.9-1.1,3.4-2.5,4.6-4.2
			L181.4,70z"/>
		<circle class="st44" cx="169.1" cy="61" r="11.4"/>
		<g>
			
				<image style="overflow:visible;opacity:0.2;" width="22" height="66" xlink:href="81146C35E83E3E6D.png"  transform="matrix(0.24 0 0 0.24 166.8485 42.9188)">
			</image>
			<g>
				<path class="st44" d="M170.3,43.5H168c-0.3,0-0.6,0.3-0.6,0.6v13c0,0.3,0.3,0.6,0.6,0.6h2.3c0.3,0,0.6-0.3,0.6-0.6v-13
					C170.9,43.7,170.6,43.5,170.3,43.5z"/>
			</g>
		</g>
	</g>
</g>
<g>
	<g>
		<radialGradient id="SVGID_30_" cx="32.3784" cy="61.0066" r="22.6785" gradientUnits="userSpaceOnUse">
			<stop  offset="0.7195" style="stop-color:#000000"/>
			<stop  offset="1" style="stop-color:#0D0D0D"/>
		</radialGradient>
		<circle class="st45" cx="32.4" cy="61" r="22.7"/>
		<linearGradient id="SVGID_31_" gradientUnits="userSpaceOnUse" x1="9.6999" y1="61.0066" x2="55.057" y2="61.0066">
			<stop  offset="0" style="stop-color:#000000"/>
			<stop  offset="1" style="stop-color:#FFFFFF"/>
		</linearGradient>
		<circle class="st46" cx="32.4" cy="61" r="22.7"/>
	</g>
	<g>
		
			<radialGradient id="SVGID_32_" cx="9.0911" cy="493.6411" r="16.261" gradientTransform="matrix(0.8522 0.5232 -0.5232 0.8522 282.9161 -364.3928)" gradientUnits="userSpaceOnUse">
			<stop  offset="0.9276" style="stop-color:#0D0D0D"/>
			<stop  offset="0.9684" style="stop-color:#1D1D1D"/>
			<stop  offset="1" style="stop-color:#242424"/>
		</radialGradient>
		<path class="st47" d="M44.6,70c0.2-0.3,0.5-0.7,0.7-1c0.5-0.9,1-1.8,1.3-2.7l0.9,0.5c1.5-3.9,1.5-8.2-0.2-12.2l-1,0.6
			c-0.6-1.3-1.3-2.6-2.2-3.7l1-0.6c-2.7-3.4-6.6-5.5-10.7-5.9l0,1.1c-1.4-0.2-2.9-0.2-4.3,0l0-1c-2,0.3-4,1-5.9,2.1
			c-0.1,0.1-0.2,0.1-0.2,0.2c-0.1,0-0.2,0.1-0.3,0.1c-1.9,1.1-3.4,2.5-4.6,4.2l0.9,0.5c-0.2,0.3-0.5,0.7-0.7,1
			c-0.5,0.9-1,1.8-1.3,2.7l-0.9-0.5c-1.5,3.9-1.5,8.2,0.2,12.2l1-0.6c0.6,1.3,1.3,2.6,2.2,3.7l-1,0.6c2.7,3.4,6.6,5.5,10.7,5.9
			l0-1.1c1.4,0.2,2.9,0.2,4.3,0l0,1c2-0.3,4-1,5.9-2.1c0.1-0.1,0.2-0.1,0.2-0.2c0.1,0,0.2-0.1,0.3-0.1c1.9-1.1,3.4-2.5,4.6-4.2
			L44.6,70z"/>
		<circle class="st44" cx="32.4" cy="61" r="11.4"/>
		<g>
			
				<image style="overflow:visible;opacity:0.2;" width="22" height="66" xlink:href="81146C35E83E3E73.png"  transform="matrix(0.24 0 0 0.24 30.0951 42.9188)">
			</image>
			<g>
				<path class="st44" d="M33.5,43.5h-2.3c-0.3,0-0.6,0.3-0.6,0.6v13c0,0.3,0.3,0.6,0.6,0.6h2.3c0.3,0,0.6-0.3,0.6-0.6v-13
					C34.1,43.7,33.8,43.5,33.5,43.5z"/>
			</g>
		</g>
	</g>
</g>
<g>
	<g>
		
			<radialGradient id="SVGID_33_" cx="768.0455" cy="-367.6611" r="22.6785" gradientTransform="matrix(6.042797e-02 -0.9982 0.9982 6.042797e-02 489.7097 979.4654)" gradientUnits="userSpaceOnUse">
			<stop  offset="0.7195" style="stop-color:#000000"/>
			<stop  offset="1" style="stop-color:#0D0D0D"/>
		</radialGradient>
		<circle class="st48" cx="169.1" cy="190.6" r="22.7"/>
		
			<linearGradient id="SVGID_34_" gradientUnits="userSpaceOnUse" x1="745.367" y1="-367.6611" x2="790.724" y2="-367.6611" gradientTransform="matrix(6.042797e-02 -0.9982 0.9982 6.042797e-02 489.7097 979.4654)">
			<stop  offset="0" style="stop-color:#000000"/>
			<stop  offset="1" style="stop-color:#FFFFFF"/>
		</linearGradient>
		<circle class="st49" cx="169.1" cy="190.6" r="22.7"/>
	</g>
	<g>
		
			<radialGradient id="SVGID_35_" cx="411.736" cy="-256.585" r="16.261" gradientTransform="matrix(0.5738 -0.819 0.819 0.5738 143.0788 675.0468)" gradientUnits="userSpaceOnUse">
			<stop  offset="0.9276" style="stop-color:#0D0D0D"/>
			<stop  offset="0.9684" style="stop-color:#1D1D1D"/>
			<stop  offset="1" style="stop-color:#242424"/>
		</radialGradient>
		<path class="st50" d="M178.9,178.9c-0.3-0.3-0.6-0.5-1-0.8c-0.9-0.6-1.7-1.1-2.7-1.5l0.6-0.9c-3.8-1.7-8.1-2-12.2-0.6l0.6,1.1
			c-1.3,0.5-2.6,1.1-3.8,2l-0.6-1.1c-3.6,2.5-5.8,6.2-6.6,10.3l1.1,0c-0.3,1.4-0.4,2.9-0.3,4.3l-1,0c0.2,2,0.7,4.1,1.7,6
			c0,0.1,0.1,0.2,0.1,0.3c0,0.1,0.1,0.2,0.1,0.3c1,1.9,2.3,3.6,3.9,4.9l0.6-0.9c0.3,0.3,0.6,0.5,1,0.8c0.9,0.6,1.7,1.1,2.7,1.5
			l-0.6,0.9c3.8,1.7,8.1,2,12.2,0.6l-0.6-1.1c1.3-0.5,2.6-1.1,3.8-2l0.6,1.1c3.6-2.5,5.8-6.2,6.6-10.3l-1.1,0
			c0.3-1.4,0.4-2.9,0.3-4.3l1,0c-0.2-2-0.7-4.1-1.7-6c0-0.1-0.1-0.2-0.1-0.3c0-0.1-0.1-0.2-0.1-0.3c-1-1.9-2.3-3.6-3.9-4.9
			L178.9,178.9z"/>
		<circle class="st44" cx="169.2" cy="190.6" r="11.4"/>
		<g>
			
				<image style="overflow:visible;opacity:0.2;" width="67" height="25" xlink:href="81146C35E83E3E77.png"  transform="matrix(0.24 0 0 0.24 151.0055 187.2978)">
			</image>
			<g>
				<path class="st44" d="M151.7,188.4l-0.1,2.3c0,0.3,0.2,0.6,0.5,0.6l12.9,0.8c0.3,0,0.6-0.2,0.6-0.5l0.1-2.3
					c0-0.3-0.2-0.6-0.5-0.6l-12.9-0.8C152,187.8,151.7,188.1,151.7,188.4z"/>
			</g>
		</g>
	</g>
</g>
<g>
	<g>
		
			<radialGradient id="SVGID_36_" cx="268.3368" cy="645.6509" r="22.6785" gradientTransform="matrix(0.6705 0.7419 -0.7419 0.6705 399.9921 -441.373)" gradientUnits="userSpaceOnUse">
			<stop  offset="0.7195" style="stop-color:#000000"/>
			<stop  offset="1" style="stop-color:#0D0D0D"/>
		</radialGradient>
		<circle class="st51" cx="100.9" cy="190.6" r="22.7"/>
		
			<linearGradient id="SVGID_37_" gradientUnits="userSpaceOnUse" x1="245.6583" y1="645.6509" x2="291.0153" y2="645.6509" gradientTransform="matrix(0.6705 0.7419 -0.7419 0.6705 399.9921 -441.373)">
			<stop  offset="0" style="stop-color:#000000"/>
			<stop  offset="1" style="stop-color:#FFFFFF"/>
		</linearGradient>
		<circle class="st52" cx="100.9" cy="190.6" r="22.7"/>
	</g>
	<g>
		
			<radialGradient id="SVGID_38_" cx="516.0726" cy="868.4146" r="16.261" gradientTransform="matrix(0.1832 0.9831 -0.9831 0.1832 860.0351 -475.7831)" gradientUnits="userSpaceOnUse">
			<stop  offset="0.9276" style="stop-color:#0D0D0D"/>
			<stop  offset="0.9684" style="stop-color:#1D1D1D"/>
			<stop  offset="1" style="stop-color:#242424"/>
		</radialGradient>
		<path class="st53" d="M102.4,205.7c0.4,0,0.8-0.1,1.2-0.2c1-0.2,2-0.5,2.9-0.9l0.2,1.1c3.9-1.5,7.1-4.4,8.9-8.3l-1.2-0.4
			c0.6-1.3,1-2.7,1.3-4.1l1.2,0.4c0.7-4.3-0.4-8.5-2.7-11.9l-0.8,0.7c-0.8-1.2-1.8-2.3-2.9-3.2l0.8-0.7c-1.6-1.3-3.4-2.3-5.5-2.9
			c-0.1,0-0.2,0-0.3-0.1c-0.1,0-0.2-0.1-0.3-0.1c-2.1-0.6-4.2-0.8-6.2-0.6l0.2,1c-0.4,0-0.8,0.1-1.2,0.2c-1,0.2-2,0.5-2.9,0.9
			l-0.2-1.1c-3.9,1.5-7.1,4.4-8.9,8.3l1.2,0.4c-0.6,1.3-1,2.7-1.3,4.1l-1.2-0.4c-0.7,4.3,0.4,8.5,2.7,11.9l0.8-0.7
			c0.8,1.2,1.8,2.3,2.9,3.2l-0.8,0.7c1.6,1.3,3.4,2.3,5.5,2.9c0.1,0,0.2,0,0.3,0.1c0.1,0,0.2,0.1,0.3,0.1c2.1,0.6,4.2,0.8,6.2,0.6
			L102.4,205.7z"/>
		<circle class="st44" cx="100.8" cy="190.6" r="11.4"/>
		<g>
			
				<image style="overflow:visible;opacity:0.2;" width="59" height="56" xlink:href="81146C35E83E3E7A.png"  transform="matrix(0.24 0 0 0.24 101.9357 177.2522)">
			</image>
			<g>
				<path class="st44" d="M114.6,179.7l-1.5-1.7c-0.2-0.2-0.6-0.3-0.8,0l-9.6,8.7c-0.2,0.2-0.3,0.6,0,0.8l1.5,1.7
					c0.2,0.2,0.6,0.3,0.8,0l9.6-8.7C114.8,180.3,114.9,179.9,114.6,179.7z"/>
			</g>
		</g>
	</g>
</g>
<g>
	<g>
		
			<radialGradient id="SVGID_39_" cx="583.9794" cy="825.2286" r="22.6785" gradientTransform="matrix(9.061520e-03 1 -1 9.061520e-03 852.2814 -400.8268)" gradientUnits="userSpaceOnUse">
			<stop  offset="0.7195" style="stop-color:#000000"/>
			<stop  offset="1" style="stop-color:#0D0D0D"/>
		</radialGradient>
		<circle class="st54" cx="32.4" cy="190.6" r="22.7"/>
		
			<linearGradient id="SVGID_40_" gradientUnits="userSpaceOnUse" x1="561.3008" y1="825.2286" x2="606.6579" y2="825.2286" gradientTransform="matrix(9.061520e-03 1 -1 9.061520e-03 852.2814 -400.8268)">
			<stop  offset="0" style="stop-color:#000000"/>
			<stop  offset="1" style="stop-color:#FFFFFF"/>
		</linearGradient>
		<circle class="st55" cx="32.4" cy="190.6" r="22.7"/>
	</g>
	<g>
		
			<radialGradient id="SVGID_41_" cx="879.021" cy="856.299" r="16.261" gradientTransform="matrix(-0.5155 0.8569 -0.8569 -0.5155 1219.2228 -121.2243)" gradientUnits="userSpaceOnUse">
			<stop  offset="0.9276" style="stop-color:#0D0D0D"/>
			<stop  offset="0.9684" style="stop-color:#1D1D1D"/>
			<stop  offset="1" style="stop-color:#242424"/>
		</radialGradient>
		<path class="st56" d="M23.5,202.9c0.3,0.2,0.7,0.5,1,0.7c0.9,0.5,1.8,1,2.8,1.3l-0.5,1c3.9,1.5,8.3,1.5,12.2-0.3l-0.6-1
			c1.3-0.6,2.5-1.3,3.7-2.2l0.6,1c3.4-2.7,5.4-6.6,5.9-10.7l-1.1,0c0.2-1.4,0.2-2.9,0-4.3l1,0c-0.3-2-1-4-2.2-5.9
			c-0.1-0.1-0.1-0.2-0.2-0.2c0-0.1-0.1-0.2-0.1-0.3c-1.1-1.9-2.6-3.4-4.2-4.6l-0.5,0.9c-0.3-0.2-0.7-0.5-1-0.7
			c-0.9-0.5-1.8-1-2.8-1.3l0.5-1c-3.9-1.5-8.3-1.5-12.2,0.3l0.6,1c-1.3,0.6-2.5,1.3-3.7,2.2l-0.6-1c-3.4,2.7-5.4,6.6-5.9,10.7l1.1,0
			c-0.2,1.4-0.2,2.9,0,4.3l-1,0c0.3,2,1,4,2.2,5.9c0.1,0.1,0.1,0.2,0.2,0.2c0,0.1,0.1,0.2,0.1,0.3c1.1,1.9,2.6,3.4,4.2,4.6
			L23.5,202.9z"/>
		<circle class="st44" cx="32.3" cy="190.6" r="11.4"/>
		<g>
			
				<image style="overflow:visible;opacity:0.2;" width="66" height="22" xlink:href="81146C35E83E3E7B.png"  transform="matrix(0.24 0 0 0.24 35.2328 188.1695)">
			</image>
			<g>
				<path class="st44" d="M49.9,191.6l0-2.3c0-0.3-0.3-0.6-0.6-0.6l-13,0.1c-0.3,0-0.6,0.3-0.6,0.6l0,2.3c0,0.3,0.3,0.6,0.6,0.6
					l13-0.1C49.7,192.2,49.9,191.9,49.9,191.6z"/>
			</g>
		</g>
	</g>
</g>
</svg>
